<svg xmlns="http://www.w3.org/2000/svg" viewBox="0 0 1190.85 1726.82"><defs><style>.cls-1{fill:#666;stroke-width:0.7px;}.cls-1,.cls-10,.cls-11,.cls-12,.cls-13,.cls-14,.cls-15,.cls-16,.cls-2,.cls-3,.cls-4,.cls-5,.cls-6,.cls-7,.cls-8,.cls-9{stroke:#000;stroke-miterlimit:10;}.cls-2{stroke-width:0.62px;}.cls-3,.cls-4{fill:#c69c6d;}.cls-3,.cls-5,.cls-6{stroke-width:0.92px;}.cls-4{stroke-width:0.93px;}.cls-5{fill:#c1272d;}.cls-6{fill:#754c24;}.cls-7{fill:#42210b;}.cls-10,.cls-7,.cls-8{stroke-width:0.88px;}.cls-8{fill:#39b54a;}.cls-15,.cls-17,.cls-9{fill:#fff;}.cls-9{stroke-width:0.46px;}.cls-11,.cls-13,.cls-14{fill:none;}.cls-11{stroke-width:1.76px;}.cls-12{stroke-width:1.94px;}.cls-13{stroke-width:8px;}.cls-14{stroke-width:3px;}.cls-15,.cls-16{stroke-width:0.75px;}.cls-16{fill:#f4ba7f;}</style></defs><title>Asset 4</title><g id="Layer_2" data-name="Layer 2"><g id="Layer_1-2" data-name="Layer 1"><rect class="cls-1" x="82.74" y="327.6" width="31.74" height="219.66"/><rect class="cls-2" x="73.29" y="459.74" width="50.65" height="192.2"/><path class="cls-3" d="M1006.71,734.82l113,151.51a44.42,44.42,0,0,0-31.25,23.32l-113-151.52Z"/><circle class="cls-4" cx="1131.39" cy="942.48" r="59"/><path class="cls-3" d="M323.84,634.73,140.44,589a44.49,44.49,0,0,0,9.43-37.85l183.4,45.73Z"/><path class="cls-5" d="M1041.81,687.48a431.1,431.1,0,0,1,40.82,75l-106.79,72a431.11,431.11,0,0,1-54.24-65.94C864.46,683.86,845.06,597,878.25,574.65S984.68,602.78,1041.81,687.48Z"/><path class="cls-5" d="M347.77,704.71a431.32,431.32,0,0,1-80.52-28.41l31.16-125A430.68,430.68,0,0,1,382.84,564c99.14,24.71,171.66,76.25,162,115.1S446.9,729.43,347.77,704.71Z"/><path class="cls-6" d="M881.35,1258.44a431.33,431.33,0,0,1-8.09,85H744.44a431.33,431.33,0,0,1-8.09-85c0-102.17,32.46-185,72.5-185S881.35,1156.27,881.35,1258.44Z"/><path class="cls-6" d="M578.35,1262.44a431.33,431.33,0,0,1-8.09,85H441.44a431.33,431.33,0,0,1-8.09-85c0-102.17,32.46-185,72.5-185S578.35,1160.27,578.35,1262.44Z"/><path class="cls-5" d="M952.35,941.94c0,94.32-13.53,183.07-37.35,260.5H370.7c-23.82-77.43-37.35-166.18-37.35-260.5,0-301.82,138.57-546.5,309.5-546.5S952.35,640.12,952.35,941.94Z"/><path class="cls-3" d="M522.35,1347.44v189a44.46,44.46,0,0,0-39,0v-189Z"/><path class="cls-3" d="M828.35,1343.44v193a44.46,44.46,0,0,0-39,0v-193Z"/><circle class="cls-3" cx="643.35" cy="285.44" r="250"/><circle class="cls-4" cx="95.85" cy="552.94" r="59"/><path class="cls-7" d="M909.35,340.94c0,116.53-119.32,211-266.5,211s-266.5-94.47-266.5-211Z"/><path class="cls-8" d="M642.85.44c-147.18,0-266.5,94.47-266.5,211h533C909.35,94.91,790,.44,642.85.44Zm-55.5,171.5c0-24.38,25-44.14,55.75-44.14s55.75,19.76,55.75,44.14Z"/><path class="cls-9" d="M768.35,388.94v.5a125,125,0,1,1-250,0q0-5.67.5-11.2v10.7Z"/><circle class="cls-10" cx="518.35" cy="274.44" r="15.56"/><circle class="cls-10" cx="762.35" cy="274.44" r="15.56"/><path class="cls-11" d="M406.85,245.14h223a0,0,0,0,1,0,0v56.54a21.26,21.26,0,0,1-21.26,21.26H428.11a21.26,21.26,0,0,1-21.26-21.26V245.14A0,0,0,0,1,406.85,245.14Z"/><rect class="cls-12" x="406.85" y="224.94" width="223" height="20.2"/><path class="cls-11" d="M656.85,245.14h223a0,0,0,0,1,0,0v56.54a21.26,21.26,0,0,1-21.26,21.26H678.11a21.26,21.26,0,0,1-21.26-21.26V245.14a0,0,0,0,1,0,0Z"/><rect class="cls-12" x="656.85" y="224.94" width="223" height="20.2"/><line class="cls-13" x1="629.85" y1="274.94" x2="656.85" y2="274.94"/><path class="cls-14" d="M620.86,340.94c.14-19.92,10-36,22.18-36s22,16.08,22.18,36"/><path class="cls-15" d="M828.35,1536.45v85h-39v-85a44.46,44.46,0,0,1,39,0Z"/><path class="cls-16" d="M881.36,1654.93a194.56,194.56,0,0,1-8.09,56.51H744.45a194.56,194.56,0,0,1-8.09-56.51c0-56.46,22.43-104,53-118.47v85h39v-85C858.92,1550.88,881.36,1598.46,881.36,1654.93Z"/><path class="cls-15" d="M522.35,1536.45v89h-39v-89a44.46,44.46,0,0,1,39,0Z"/><path class="cls-16" d="M575.36,1654.93a194.56,194.56,0,0,1-8.09,56.51H438.45a194.56,194.56,0,0,1-8.09-56.51c0-56.46,22.43-104,53-118.47v89h39v-89C552.92,1550.88,575.36,1598.46,575.36,1654.93Z"/><rect class="cls-15" x="438.35" y="1711.44" width="129" height="15"/><rect class="cls-15" x="744.35" y="1711.44" width="129" height="15"/><path class="cls-1" d="M64,327.6C64,357.09,45.17,381,22,381A35.43,35.43,0,0,1,.35,373.41V281.8A35.43,35.43,0,0,1,22,274.21C45.17,274.21,64,298.11,64,327.6Z"/><path class="cls-1" d="M214.14,349.68a60.83,60.83,0,0,0-6-16.07c-13.28-24.19-39.48-30.14-58.52-13.27-.95.84-1.87,1.73-2.74,2.66l-9.41-17.14a52.3,52.3,0,0,1,14.3-21.94c19-16.87,45.24-10.93,58.52,13.26C219.07,313.17,220,333.11,214.14,349.68Z"/><rect class="cls-1" x="51" y="295" width="95.89" height="65.21"/><path class="cls-17" d="M419.71,731.46,382.45,819.9h-9l37.26-88.44Z"/><path class="cls-17" d="M480.88,731.46,443.61,819.9h-9l37.26-88.44Z"/><path class="cls-17" d="M544.82,780a36.58,36.58,0,0,1-1.88,12.14,25.54,25.54,0,0,1-5.32,9.07,22.9,22.9,0,0,1-8.39,5.7,29.56,29.56,0,0,1-11.14,2,54.63,54.63,0,0,1-9.89-.93,50.1,50.1,0,0,1-10-2.93V731.46h9.45v21.13l-.44,10.1a24.76,24.76,0,0,1,8.72-7.74,22.58,22.58,0,0,1,10-2.25,16.66,16.66,0,0,1,8.2,1.95,17.15,17.15,0,0,1,5.93,5.52,26.19,26.19,0,0,1,3.58,8.58A48.38,48.38,0,0,1,544.82,780Zm-9.67.43a45.56,45.56,0,0,0-.63-7.87,20.8,20.8,0,0,0-2-6.14,11,11,0,0,0-3.48-4,8.82,8.82,0,0,0-5-1.43,12.32,12.32,0,0,0-3.64.57,14.65,14.65,0,0,0-3.83,1.9,27.63,27.63,0,0,0-4.18,3.53,52.92,52.92,0,0,0-4.7,5.46v26.45a35.63,35.63,0,0,0,5.65,1.71,25.71,25.71,0,0,0,5.49.63,18.9,18.9,0,0,0,6.21-1,12.83,12.83,0,0,0,5.22-3.45,17.34,17.34,0,0,0,3.59-6.41A32,32,0,0,0,535.15,780.4Z"/><path class="cls-17" d="M603.21,808.22h-8.47l-.33-8.8a43.94,43.94,0,0,1-4.64,4.69,24.1,24.1,0,0,1-4.38,3,16.75,16.75,0,0,1-4.37,1.6,22.33,22.33,0,0,1-4.64.46q-8.43,0-12.71-4.94t-4.3-14.94V753.68h9.46v34.87q0,12.56,9.45,12.55a11.11,11.11,0,0,0,3.39-.52,12.55,12.55,0,0,0,3.48-1.79,27.3,27.3,0,0,0,3.91-3.45c1.4-1.45,3-3.28,4.7-5.49V753.68h9.45Z"/><path class="cls-17" d="M639.12,761.5H623v-7.82h25.69v46.66h16.24v7.88H621.19v-7.88h17.93Zm3.31-30.69a7.55,7.55,0,0,1,2.94.57,7.1,7.1,0,0,1,2.36,1.6,8,8,0,0,1,1.58,2.36,7.64,7.64,0,0,1,0,5.79,7.9,7.9,0,0,1-1.58,2.39,7.1,7.1,0,0,1-2.36,1.6,7.55,7.55,0,0,1-2.94.57,7.47,7.47,0,0,1-2.93-.57,7,7,0,0,1-2.36-1.6,7.72,7.72,0,0,1-1.58-2.39,7.64,7.64,0,0,1,0-5.79,7.82,7.82,0,0,1,1.58-2.36,7,7,0,0,1,2.36-1.6A7.47,7.47,0,0,1,642.43,730.81Z"/><path class="cls-17" d="M700.29,739.23H684.15v-7.77h25.7v68.88h16.24v7.88H682.36v-7.88h17.93Z"/><path class="cls-17" d="M740.11,782.09a37.06,37.06,0,0,1,1.9-12.36,25.41,25.41,0,0,1,5.4-9.13,23,23,0,0,1,8.42-5.65A29.89,29.89,0,0,1,766.78,753a39.47,39.47,0,0,1,5.13.33,33.73,33.73,0,0,1,5,1V731.46h9.51v76.76h-8.48l-.32-10.33a28.56,28.56,0,0,1-8.59,8.53,19,19,0,0,1-10,2.77,16.16,16.16,0,0,1-14.15-7.47,26.4,26.4,0,0,1-3.56-8.55A47.53,47.53,0,0,1,740.11,782.09Zm9.66-.6q0,9.88,2.91,14.75a9.11,9.11,0,0,0,8.23,4.86q3.58,0,7.58-3.21a45.59,45.59,0,0,0,8.39-9.5V763.07a23.28,23.28,0,0,0-5.16-1.65,28.21,28.21,0,0,0-5.59-.57q-7.73,0-12,5T749.77,781.49Z"/><path class="cls-17" d="M850.11,778.07q0,2-.06,3.36c0,.91-.09,1.76-.16,2.56h-38.3q0,8.37,4.68,12.85t13.47,4.48c1.59,0,3.18-.07,4.78-.19s3.13-.3,4.61-.52,2.91-.46,4.27-.73,2.62-.57,3.77-.9v7.77a66.14,66.14,0,0,1-8.71,1.76,71.79,71.79,0,0,1-10.08.68,34.23,34.23,0,0,1-12.06-1.9,20.48,20.48,0,0,1-8.28-5.51,22.6,22.6,0,0,1-4.78-8.86,41.59,41.59,0,0,1-1.55-11.87,35.45,35.45,0,0,1,1.65-10.89,27.42,27.42,0,0,1,4.84-9,22.87,22.87,0,0,1,18.28-8.45,26.69,26.69,0,0,1,10.1,1.79,20.33,20.33,0,0,1,7.42,5.08,21.57,21.57,0,0,1,4.56,8A33.49,33.49,0,0,1,850.11,778.07Zm-9.83-1.36a20.85,20.85,0,0,0-.71-6.66,14,14,0,0,0-2.69-5.18,12.49,12.49,0,0,0-4.54-3.4,15.29,15.29,0,0,0-6.3-1.22,13.3,13.3,0,0,0-5.65,1.19,12.92,12.92,0,0,0-4.4,3.37,17.42,17.42,0,0,0-3,5.22,24,24,0,0,0-1.42,6.68Z"/><path class="cls-17" d="M867.44,753.68h8.63l.28,10.05a34.77,34.77,0,0,1,9.53-8.42,19.33,19.33,0,0,1,9.48-2.61q8.48,0,12.85,5.48t4,16.3h-9.56q.16-7.17-2.09-10.4a7.52,7.52,0,0,0-6.6-3.23,11.3,11.3,0,0,0-3.83.68,15,15,0,0,0-4,2.17,35.42,35.42,0,0,0-4.32,3.83,71.61,71.61,0,0,0-4.89,5.65v35h-9.56Z"/></g></g></svg>