<svg xmlns="http://www.w3.org/2000/svg" viewBox="0 0 1370.5 1726.88"><defs><style>.cls-1,.cls-2{fill:#c69c6d;}.cls-1,.cls-10,.cls-11,.cls-12,.cls-13,.cls-14,.cls-15,.cls-17,.cls-2,.cls-3,.cls-4,.cls-5,.cls-6,.cls-7,.cls-8,.cls-9{stroke:#000;}.cls-1,.cls-10,.cls-11,.cls-12,.cls-13,.cls-14,.cls-15,.cls-16,.cls-17,.cls-2,.cls-3,.cls-4,.cls-5,.cls-6,.cls-7,.cls-8,.cls-9{stroke-miterlimit:10;}.cls-1,.cls-4{stroke-width:0.92px;}.cls-2{stroke-width:0.93px;}.cls-3{fill:#2e3192;}.cls-3,.cls-5,.cls-8{stroke-width:0.88px;}.cls-15,.cls-4{fill:#754c24;}.cls-5{fill:#42210b;}.cls-6{fill:#666;}.cls-13,.cls-7{fill:#fff;}.cls-7{stroke-width:0.46px;}.cls-11,.cls-12,.cls-16,.cls-17,.cls-9{fill:none;}.cls-9{stroke-width:1.76px;}.cls-10{stroke-width:1.94px;}.cls-11{stroke-width:8px;}.cls-12{stroke-width:3px;}.cls-13,.cls-14{stroke-width:0.75px;}.cls-14{fill:#ff0;}.cls-15,.cls-17{stroke-width:12px;}.cls-16{stroke:#fff;stroke-width:10px;}</style></defs><title>Asset 3</title><g id="Layer_2" data-name="Layer 2"><g id="Layer_1-2" data-name="Layer 1"><path class="cls-1" d="M1186.36,734.88l113,151.51a44.51,44.51,0,0,0-31.26,23.33l-113-151.53Z"/><circle class="cls-2" cx="1311.04" cy="942.54" r="59"/><path class="cls-1" d="M503.49,634.8l-183.4-45.73a44.43,44.43,0,0,0,9.42-37.84L512.92,597Z"/><path class="cls-3" d="M1221.46,687.54a431.53,431.53,0,0,1,40.82,75l-106.8,72a431.67,431.67,0,0,1-54.23-65.94c-57.14-84.71-76.54-171.53-43.35-193.92S1164.32,602.84,1221.46,687.54Z"/><path class="cls-3" d="M527.41,704.77a431.21,431.21,0,0,1-80.51-28.41l31.16-125a430.79,430.79,0,0,1,84.43,12.72c99.14,24.71,171.65,76.25,162,115.1S626.55,729.49,527.41,704.77Z"/><path class="cls-4" d="M1061,1258.5a431.33,431.33,0,0,1-8.09,85H924.09a431.33,431.33,0,0,1-8.09-85c0-102.17,32.46-185,72.5-185S1061,1156.33,1061,1258.5Z"/><path class="cls-4" d="M758,1262.5a431.33,431.33,0,0,1-8.09,85H621.09a431.33,431.33,0,0,1-8.09-85c0-102.17,32.46-185,72.5-185S758,1160.33,758,1262.5Z"/><path class="cls-3" d="M1132,942c0,94.32-13.53,183.07-37.35,260.5H550.35C526.53,1125.07,513,1036.32,513,942c0-301.82,138.57-546.5,309.5-546.5S1132,640.18,1132,942Z"/><path class="cls-1" d="M702,1347.5v189a44.46,44.46,0,0,0-39,0v-189Z"/><path class="cls-1" d="M1008,1343.5v193a44.46,44.46,0,0,0-39,0v-193Z"/><circle class="cls-1" cx="823" cy="285.5" r="250"/><circle class="cls-2" cx="275.5" cy="553" r="59"/><path class="cls-5" d="M1089,341c0,116.53-119.32,211-266.5,211S556,457.53,556,341Z"/><path class="cls-6" d="M822.5.5C675.32.5,556,95,556,211.5h533C1089,95,969.68.5,822.5.5ZM767,172c0-24.38,25-44.14,55.75-44.14S878.5,147.62,878.5,172Z"/><path class="cls-7" d="M948,389v.5a125,125,0,0,1-250,0q0-5.67.5-11.2V389Z"/><circle class="cls-8" cx="698" cy="274.5" r="15.56"/><circle class="cls-8" cx="942" cy="274.5" r="15.56"/><path class="cls-9" d="M586.5,245.2h223a0,0,0,0,1,0,0v56.54A21.26,21.26,0,0,1,788.24,323H607.76a21.26,21.26,0,0,1-21.26-21.26V245.2A0,0,0,0,1,586.5,245.2Z"/><rect class="cls-10" x="586.5" y="225" width="223" height="20.2"/><path class="cls-9" d="M836.5,245.2h223a0,0,0,0,1,0,0v56.54A21.26,21.26,0,0,1,1038.24,323H857.76a21.26,21.26,0,0,1-21.26-21.26V245.2A0,0,0,0,1,836.5,245.2Z"/><rect class="cls-10" x="836.5" y="225" width="223" height="20.2"/><line class="cls-11" x1="809.5" y1="275" x2="836.5" y2="275"/><path class="cls-12" d="M800.51,341c.13-19.92,10-36,22.18-36s22,16.08,22.18,36"/><path class="cls-13" d="M1008,1536.51v85H969v-85a44.46,44.46,0,0,1,39,0Z"/><path class="cls-14" d="M1061,1655a194.56,194.56,0,0,1-8.09,56.51H924.1A194.56,194.56,0,0,1,916,1655c0-56.46,22.43-104,53-118.47v85h39v-85C1038.57,1550.94,1061,1598.52,1061,1655Z"/><path class="cls-13" d="M702,1536.51v89H663v-89a44.46,44.46,0,0,1,39,0Z"/><path class="cls-14" d="M755,1655a194.56,194.56,0,0,1-8.09,56.51H618.1A194.56,194.56,0,0,1,610,1655c0-56.46,22.43-104,53-118.47v89h39v-89C732.57,1550.94,755,1598.52,755,1655Z"/><rect class="cls-13" x="618" y="1711.5" width="129" height="15"/><rect class="cls-13" x="924" y="1711.5" width="129" height="15"/><ellipse class="cls-15" cx="259.5" cy="425.5" rx="253.5" ry="126"/><line class="cls-16" x1="82.5" y1="336" x2="82.5" y2="514"/><line class="cls-16" x1="169.5" y1="398" x2="169.5" y2="455"/><line class="cls-16" x1="198.5" y1="398" x2="198.5" y2="455"/><line class="cls-16" x1="227.5" y1="398" x2="227.5" y2="455"/><line class="cls-16" x1="256.5" y1="398" x2="256.5" y2="455"/><line class="cls-16" x1="285.5" y1="398" x2="285.5" y2="455"/><line class="cls-16" x1="314.5" y1="398" x2="314.5" y2="455"/><line class="cls-16" x1="343.5" y1="398" x2="343.5" y2="455"/><line class="cls-16" x1="362.5" y1="425" x2="156.5" y2="425"/><line class="cls-16" x1="446.5" y1="336" x2="446.5" y2="514"/><ellipse class="cls-17" cx="259.5" cy="425.5" rx="253.5" ry="126"/><path class="cls-14" d="M629.81,721.45,585,827.71H574.2L619,721.45Z"/><path class="cls-14" d="M703.31,721.45,658.53,827.71H647.7l44.78-106.26Z"/><path class="cls-14" d="M775.05,811.26a49,49,0,0,1-9.11,2.52,56.2,56.2,0,0,1-9.63.81q-15.52,0-23.92-8.42T724,781.57a39.28,39.28,0,0,1,2.42-14.1,31.34,31.34,0,0,1,6.79-10.84,29.92,29.92,0,0,1,10.44-7A35.52,35.52,0,0,1,757,747.23a59.62,59.62,0,0,1,9.53.72,39.48,39.48,0,0,1,8.49,2.35v10.83a36.8,36.8,0,0,0-8.65-3.23,40.9,40.9,0,0,0-9.11-1,20.77,20.77,0,0,0-8.26,1.67,20.25,20.25,0,0,0-6.82,4.79,22.88,22.88,0,0,0-4.63,7.64,28.75,28.75,0,0,0-1.7,10.18q0,11.88,5.78,17.79t16,5.91a38.12,38.12,0,0,0,9-1,37.14,37.14,0,0,0,8.39-3.13Z"/><path class="cls-14" d="M854.68,780.39a43.6,43.6,0,0,1-2.15,14,31.18,31.18,0,0,1-6.21,10.9,27.62,27.62,0,0,1-9.85,7.05,32.84,32.84,0,0,1-13.19,2.51,34.56,34.56,0,0,1-12.63-2.18,25,25,0,0,1-9.46-6.43,28.43,28.43,0,0,1-5.94-10.51,46.31,46.31,0,0,1-2.06-14.43,42.72,42.72,0,0,1,2.16-13.93,31.18,31.18,0,0,1,6.2-10.84,27.86,27.86,0,0,1,9.85-7A33,33,0,0,1,824.59,747a34.35,34.35,0,0,1,12.63,2.19,25.25,25.25,0,0,1,9.46,6.39A28.14,28.14,0,0,1,852.62,766,46.08,46.08,0,0,1,854.68,780.39Zm-11.62.52a37.68,37.68,0,0,0-1.34-10.6,21.28,21.28,0,0,0-3.82-7.58,15.82,15.82,0,0,0-6-4.57,19.92,19.92,0,0,0-7.93-1.53,17.84,17.84,0,0,0-8.72,2,17.37,17.37,0,0,0-5.94,5.32,23.06,23.06,0,0,0-3.39,7.74,38.57,38.57,0,0,0-1.08,9.23,38,38,0,0,0,1.34,10.64,21.26,21.26,0,0,0,3.82,7.61,15.88,15.88,0,0,0,6,4.57,19.84,19.84,0,0,0,8,1.53,17.82,17.82,0,0,0,8.71-2,17.37,17.37,0,0,0,5.94-5.32,22.86,22.86,0,0,0,3.39-7.74A38.86,38.86,0,0,0,843.06,780.91Z"/><path class="cls-14" d="M913.23,813.68l-.26-8.81a35.45,35.45,0,0,1-10.87,7.63,29.2,29.2,0,0,1-11.58,2.35,28.31,28.31,0,0,1-9.6-1.43,18,18,0,0,1-6.56-3.95,15.35,15.35,0,0,1-3.79-5.91,22,22,0,0,1-1.2-7.37q0-9.86,7.34-15.44t21.7-5.58H912v-5.75a12.16,12.16,0,0,0-3.72-9.3q-3.72-3.48-11.36-3.49A48.34,48.34,0,0,0,886,757.87a76.47,76.47,0,0,0-11.13,3.53V751.15c1.44-.52,3-1,4.8-1.54s3.62-.94,5.58-1.33,4-.71,6.13-.95a57.79,57.79,0,0,1,6.47-.36,40.57,40.57,0,0,1,10.7,1.31,21.6,21.6,0,0,1,8.06,4,17.4,17.4,0,0,1,5.06,6.72,23.67,23.67,0,0,1,1.76,9.53v45.17ZM912,783.85H897.56a27.49,27.49,0,0,0-7.31.85,13.82,13.82,0,0,0-5,2.41,9.7,9.7,0,0,0-2.91,3.76,12.3,12.3,0,0,0-.94,4.92,11.27,11.27,0,0,0,.58,3.63,8.28,8.28,0,0,0,1.9,3.07,9.26,9.26,0,0,0,3.39,2.12,14.61,14.61,0,0,0,5.09.78,21.54,21.54,0,0,0,9-2.38A43.84,43.84,0,0,0,912,795.47Z"/><path class="cls-14" d="M995.54,811.26a48.83,48.83,0,0,1-9.11,2.52,56.17,56.17,0,0,1-9.62.81q-15.54,0-23.93-8.42t-8.38-24.6a39.28,39.28,0,0,1,2.41-14.1,31.34,31.34,0,0,1,6.79-10.84,30,30,0,0,1,10.44-7,35.52,35.52,0,0,1,13.38-2.45,59.44,59.44,0,0,1,9.53.72,39.48,39.48,0,0,1,8.49,2.35v10.83a36.64,36.64,0,0,0-8.65-3.23,40.81,40.81,0,0,0-9.1-1,20.74,20.74,0,0,0-8.26,1.67,20.25,20.25,0,0,0-6.82,4.79,22.74,22.74,0,0,0-4.64,7.64,28.75,28.75,0,0,0-1.69,10.18q0,11.88,5.77,17.79t16,5.91a38,38,0,0,0,9-1,37,37,0,0,0,8.39-3.13Z"/><path class="cls-14" d="M1070.8,813.68h-11.36V771.84q0-7.58-2.84-11.33a9.57,9.57,0,0,0-8.12-3.75,14.42,14.42,0,0,0-4.28.62,14.74,14.74,0,0,0-4.14,2.16,34.72,34.72,0,0,0-4.7,4.14q-2.55,2.61-5.88,6.53v43.47h-11.36V721.45h11.36v26.7l-.39,10.31a44.41,44.41,0,0,1,5.25-5.39,29.44,29.44,0,0,1,5.16-3.55,20.25,20.25,0,0,1,5.26-2,25.84,25.84,0,0,1,5.54-.59q9.79,0,15.15,6t5.35,18Z"/></g></g></svg>