<svg xmlns="http://www.w3.org/2000/svg" viewBox="0 0 1364.5 1726.82"><defs><style>.cls-1,.cls-2{fill:#c69c6d;}.cls-1,.cls-10,.cls-11,.cls-12,.cls-13,.cls-14,.cls-2,.cls-21,.cls-3,.cls-4,.cls-5,.cls-6,.cls-7,.cls-8,.cls-9{stroke:#000;}.cls-1,.cls-10,.cls-11,.cls-12,.cls-13,.cls-14,.cls-15,.cls-16,.cls-17,.cls-18,.cls-19,.cls-2,.cls-20,.cls-21,.cls-3,.cls-4,.cls-5,.cls-6,.cls-7,.cls-8,.cls-9{stroke-miterlimit:10;}.cls-1,.cls-3,.cls-4{stroke-width:0.92px;}.cls-2{stroke-width:0.93px;}.cls-3{fill:#29abe2;}.cls-4{fill:#754c24;}.cls-5{fill:#42210b;}.cls-5,.cls-6,.cls-8{stroke-width:0.88px;}.cls-6{fill:#2e3192;}.cls-13,.cls-7{fill:#fff;}.cls-7{stroke-width:0.46px;}.cls-11,.cls-12,.cls-16,.cls-17,.cls-18,.cls-19,.cls-20,.cls-9{fill:none;}.cls-9{stroke-width:1.76px;}.cls-10{stroke-width:1.94px;}.cls-11,.cls-17,.cls-18,.cls-19,.cls-20{stroke-width:8px;}.cls-12{stroke-width:3px;}.cls-13,.cls-14{stroke-width:0.75px;}.cls-14{fill:#8cc63f;}.cls-15,.cls-16{stroke:#666;stroke-width:10px;}.cls-17{stroke:lime;}.cls-18{stroke:#fff;}.cls-19{stroke:#f0f;}.cls-20{stroke:#f7931e;}.cls-21{fill:#666;}.cls-22{fill:lime;}</style></defs><title>Asset 1</title><g id="Layer_2" data-name="Layer 2"><g id="Layer_1-2" data-name="Layer 1"><path class="cls-1" d="M1180.36,734.82l113,151.51a44.46,44.46,0,0,0-31.26,23.32l-113-151.52Z"/><circle class="cls-2" cx="1305.04" cy="942.48" r="59"/><path class="cls-1" d="M497.49,634.73,314.09,589a44.44,44.44,0,0,0,9.42-37.85l183.41,45.73Z"/><path class="cls-3" d="M1215.46,687.48a431.1,431.1,0,0,1,40.82,75l-106.8,72a431.67,431.67,0,0,1-54.23-65.94c-57.14-84.71-76.54-171.53-43.35-193.92S1158.32,602.78,1215.46,687.48Z"/><path class="cls-3" d="M521.41,704.71A431.21,431.21,0,0,1,440.9,676.3l31.16-125A430.79,430.79,0,0,1,556.49,564c99.14,24.71,171.65,76.25,162,115.1S620.55,729.43,521.41,704.71Z"/><path class="cls-4" d="M1055,1258.44a431.33,431.33,0,0,1-8.09,85H918.09a431.33,431.33,0,0,1-8.09-85c0-102.17,32.46-185,72.5-185S1055,1156.27,1055,1258.44Z"/><path class="cls-4" d="M752,1262.44a431.33,431.33,0,0,1-8.09,85H615.09a431.33,431.33,0,0,1-8.09-85c0-102.17,32.46-185,72.5-185S752,1160.27,752,1262.44Z"/><path class="cls-3" d="M1126,941.94c0,94.32-13.53,183.07-37.35,260.5H544.35C520.53,1125,507,1036.26,507,941.94c0-301.82,138.57-546.5,309.5-546.5S1126,640.12,1126,941.94Z"/><path class="cls-1" d="M696,1347.44v189a44.46,44.46,0,0,0-39,0v-189Z"/><path class="cls-1" d="M1002,1343.44v193a44.46,44.46,0,0,0-39,0v-193Z"/><circle class="cls-1" cx="817" cy="285.44" r="250"/><circle class="cls-2" cx="269.5" cy="552.94" r="59"/><path class="cls-5" d="M1083,340.94c0,116.53-119.32,211-266.5,211S550,457.47,550,340.94Z"/><path class="cls-6" d="M816.5.44C669.32.44,550,94.91,550,211.44h533C1083,94.91,963.68.44,816.5.44ZM761,171.94c0-24.38,25-44.14,55.75-44.14s55.75,19.76,55.75,44.14Z"/><path class="cls-7" d="M942,388.94v.5a125,125,0,0,1-250,0q0-5.67.5-11.2v10.7Z"/><circle class="cls-8" cx="692" cy="274.44" r="15.56"/><circle class="cls-8" cx="936" cy="274.44" r="15.56"/><path class="cls-9" d="M580.5,245.14h223a0,0,0,0,1,0,0v56.54a21.26,21.26,0,0,1-21.26,21.26H601.76a21.26,21.26,0,0,1-21.26-21.26V245.14A0,0,0,0,1,580.5,245.14Z"/><rect class="cls-10" x="580.5" y="224.94" width="223" height="20.2"/><path class="cls-9" d="M830.5,245.14h223a0,0,0,0,1,0,0v56.54a21.26,21.26,0,0,1-21.26,21.26H851.76a21.26,21.26,0,0,1-21.26-21.26V245.14A0,0,0,0,1,830.5,245.14Z"/><rect class="cls-10" x="830.5" y="224.94" width="223" height="20.2"/><line class="cls-11" x1="803.5" y1="274.94" x2="830.5" y2="274.94"/><path class="cls-12" d="M794.51,340.94c.13-19.92,10-36,22.18-36s22,16.08,22.18,36"/><path class="cls-13" d="M1002,1536.45v85H963v-85a44.46,44.46,0,0,1,39,0Z"/><path class="cls-14" d="M1055,1654.93a194.56,194.56,0,0,1-8.09,56.51H918.1a194.56,194.56,0,0,1-8.09-56.51c0-56.46,22.43-104,53-118.47v85h39v-85C1032.57,1550.88,1055,1598.46,1055,1654.93Z"/><path class="cls-13" d="M696,1536.45v89H657v-89a44.46,44.46,0,0,1,39,0Z"/><path class="cls-14" d="M749,1654.93a194.56,194.56,0,0,1-8.09,56.51H612.1a194.56,194.56,0,0,1-8.09-56.51c0-56.46,22.43-104,53-118.47v89h39v-89C726.57,1550.88,749,1598.46,749,1654.93Z"/><rect class="cls-13" x="612" y="1711.44" width="129" height="15"/><rect class="cls-13" x="918" y="1711.44" width="129" height="15"/><rect class="cls-15" x="5" y="166.44" width="489" height="340" rx="33.43"/><line class="cls-16" x1="98.5" y1="165.94" x2="98.5" y2="505.94"/><line class="cls-17" x1="141.5" y1="396.94" x2="451.5" y2="396.94"/><line class="cls-16" x1="98.5" y1="400.94" x2="494.5" y2="400.94"/><line class="cls-17" x1="141.5" y1="184.94" x2="451.5" y2="184.94"/><line class="cls-17" x1="175.5" y1="204.94" x2="451.5" y2="204.94"/><line class="cls-17" x1="175.5" y1="375.94" x2="451.5" y2="375.94"/><line class="cls-17" x1="201.5" y1="226.94" x2="451.5" y2="226.94"/><line class="cls-17" x1="201.5" y1="354.94" x2="451.5" y2="354.94"/><line class="cls-17" x1="224.5" y1="249.94" x2="451.5" y2="249.94"/><line class="cls-17" x1="224.5" y1="333.94" x2="451.5" y2="333.94"/><line class="cls-17" x1="279.5" y1="270.94" x2="407.5" y2="270.94"/><line class="cls-17" x1="279.5" y1="291.94" x2="407.5" y2="291.94"/><line class="cls-17" x1="279.5" y1="312.94" x2="407.5" y2="312.94"/><line class="cls-18" x1="119.5" y1="417.94" x2="247.5" y2="417.94"/><line class="cls-18" x1="205.5" y1="434.94" x2="333.5" y2="434.94"/><line class="cls-18" x1="119.5" y1="434.94" x2="171.5" y2="434.94"/><line class="cls-19" x1="21.5" y1="204.94" x2="73.5" y2="204.94"/><line class="cls-20" x1="21.5" y1="226.94" x2="62.5" y2="226.94"/><line class="cls-17" x1="21.5" y1="248.94" x2="51.5" y2="248.94"/><line class="cls-17" x1="21.5" y1="270.94" x2="67.5" y2="270.94"/><line class="cls-17" x1="21.5" y1="292.94" x2="57.5" y2="292.94"/><line class="cls-19" x1="21.5" y1="314.94" x2="73.5" y2="314.94"/><line class="cls-20" x1="21.5" y1="336.94" x2="51.5" y2="336.94"/><line class="cls-17" x1="21.5" y1="358.94" x2="62.5" y2="358.94"/><line class="cls-17" x1="21.5" y1="380.94" x2="47.5" y2="380.94"/><line class="cls-17" x1="21.5" y1="402.94" x2="62.5" y2="402.94"/><line class="cls-19" x1="21.5" y1="434.94" x2="73.5" y2="434.94"/><line class="cls-18" x1="119.5" y1="451.94" x2="247.5" y2="451.94"/><line class="cls-18" x1="119.5" y1="468.94" x2="224.5" y2="468.94"/><rect class="cls-21" x="6" y="504.44" width="489" height="36.5" rx="10.95"/><path class="cls-22" d="M630.51,717.56,587.72,819.11H577.36l42.79-101.55Z"/><path class="cls-22" d="M700.74,717.56,658,819.11H647.6l42.79-101.55Z"/><path class="cls-22" d="M769.3,803.39a46.41,46.41,0,0,1-8.7,2.41,53.37,53.37,0,0,1-9.2.78q-14.85,0-22.87-8.05t-8-23.52a37.47,37.47,0,0,1,2.31-13.47,30,30,0,0,1,6.48-10.36,28.77,28.77,0,0,1,10-6.64,33.9,33.9,0,0,1,12.79-2.34,56.77,56.77,0,0,1,9.11.69,37.83,37.83,0,0,1,8.11,2.24v10.36A34.49,34.49,0,0,0,761,752.4a38.93,38.93,0,0,0-8.7-1,19.79,19.79,0,0,0-7.89,1.59,19.23,19.23,0,0,0-6.52,4.59,21.67,21.67,0,0,0-4.43,7.3,27.46,27.46,0,0,0-1.62,9.73q0,11.36,5.52,17t15.32,5.64a36.22,36.22,0,0,0,8.57-1,35.31,35.31,0,0,0,8-3Z"/><path class="cls-22" d="M845.4,773.89a41.54,41.54,0,0,1-2.06,13.38,29.76,29.76,0,0,1-5.93,10.42,26.46,26.46,0,0,1-9.41,6.73,31.53,31.53,0,0,1-12.6,2.41,33,33,0,0,1-12.08-2.09,23.88,23.88,0,0,1-9-6.15,27.24,27.24,0,0,1-5.68-10,44.22,44.22,0,0,1-2-13.79,40.71,40.71,0,0,1,2.06-13.31,29.74,29.74,0,0,1,5.92-10.36,26.73,26.73,0,0,1,9.42-6.74,31.46,31.46,0,0,1,12.6-2.4A32.92,32.92,0,0,1,828.71,744a24.18,24.18,0,0,1,9,6.11,27,27,0,0,1,5.67,10A43.93,43.93,0,0,1,845.4,773.89Zm-11.1.5A36.08,36.08,0,0,0,833,764.25a20.49,20.49,0,0,0-3.65-7.23,15.07,15.07,0,0,0-5.77-4.37,18.94,18.94,0,0,0-7.58-1.47,17.06,17.06,0,0,0-8.33,1.91,16.41,16.41,0,0,0-5.67,5.08,22,22,0,0,0-3.25,7.39,37.4,37.4,0,0,0-1,8.83A36.4,36.4,0,0,0,799,784.56a20.3,20.3,0,0,0,3.65,7.26,15.05,15.05,0,0,0,5.74,4.37,18.82,18.82,0,0,0,7.61,1.47,17.06,17.06,0,0,0,8.33-1.91,16.5,16.5,0,0,0,5.67-5.08,22,22,0,0,0,3.25-7.39A37.66,37.66,0,0,0,834.3,774.39Z"/><path class="cls-22" d="M857.94,775.7a42.55,42.55,0,0,1,2.18-14.19A29,29,0,0,1,866.33,751a26.28,26.28,0,0,1,9.66-6.49,34.34,34.34,0,0,1,12.57-2.21,45.93,45.93,0,0,1,5.9.37,38.61,38.61,0,0,1,5.71,1.19V717.56h10.91V805.7h-9.73L901,793.85a32.77,32.77,0,0,1-9.86,9.79,21.92,21.92,0,0,1-11.48,3.19,18.63,18.63,0,0,1-16.25-8.58,30.53,30.53,0,0,1-4.08-9.83A54.39,54.39,0,0,1,857.94,775.7ZM869,775q0,11.36,3.34,16.94a10.45,10.45,0,0,0,9.45,5.58q4.11,0,8.7-3.68a52.38,52.38,0,0,0,9.64-10.92V753.87a26.76,26.76,0,0,0-5.93-1.91,32.83,32.83,0,0,0-6.42-.65q-8.87,0-13.82,5.74T869,775Z"/><path class="cls-22" d="M984.25,771.08q0,2.31-.06,3.87c0,1-.1,2-.19,2.93H940q0,9.61,5.36,14.75t15.47,5.15c1.83,0,3.66-.07,5.49-.22s3.6-.34,5.3-.59,3.34-.53,4.9-.84,3-.66,4.33-1V804a76,76,0,0,1-10,2,85.13,85.13,0,0,1-11.57.78,39.28,39.28,0,0,1-13.85-2.19,23.61,23.61,0,0,1-9.51-6.33,26.11,26.11,0,0,1-5.49-10.17,48.26,48.26,0,0,1-1.78-13.63,40.42,40.42,0,0,1,1.91-12.5,31.38,31.38,0,0,1,5.55-10.36,26.31,26.31,0,0,1,21-9.7,30.58,30.58,0,0,1,11.6,2.06,23.36,23.36,0,0,1,8.52,5.83,25.14,25.14,0,0,1,5.24,9.17A38.61,38.61,0,0,1,984.25,771.08ZM973,769.52a23.41,23.41,0,0,0-.81-7.64,16,16,0,0,0-3.09-6,14.36,14.36,0,0,0-5.2-3.89,17.45,17.45,0,0,0-7.24-1.41,15.07,15.07,0,0,0-6.49,1.38,14.75,14.75,0,0,0-5,3.86,19.85,19.85,0,0,0-3.43,6,27.48,27.48,0,0,0-1.62,7.67Z"/><path class="cls-22" d="M1004.15,743.08h9.92l.31,11.53a40.16,40.16,0,0,1,10.95-9.66,22.16,22.16,0,0,1,10.88-3q9.74,0,14.76,6.3t4.64,18.72h-11q.19-8.24-2.4-12a8.65,8.65,0,0,0-7.58-3.71,13.12,13.12,0,0,0-4.39.78,17.83,17.83,0,0,0-4.56,2.49,41.45,41.45,0,0,0-5,4.4,83.21,83.21,0,0,0-5.61,6.49V805.7h-11Z"/></g></g></svg>