<svg xmlns="http://www.w3.org/2000/svg" xmlns:xlink="http://www.w3.org/1999/xlink" viewBox="0 0 1197.49 1726.82"><defs><style>.cls-1,.cls-12,.cls-14,.cls-15{fill:none;}.cls-2{fill:#00bac6;}.cls-2,.cls-3,.cls-4,.cls-5{mix-blend-mode:multiply;}.cls-3{fill:#ffd400;}.cls-4{fill:#a6ce39;}.cls-5{fill:#ed1c24;}.cls-6,.cls-7{fill:#c69c6d;}.cls-10,.cls-11,.cls-12,.cls-13,.cls-14,.cls-15,.cls-16,.cls-17,.cls-6,.cls-7,.cls-8,.cls-9{stroke:#000;stroke-miterlimit:10;}.cls-6,.cls-9{stroke-width:0.92px;}.cls-7{stroke-width:0.93px;}.cls-10,.cls-8{stroke-width:0.88px;}.cls-9{fill:#754c24;}.cls-10{fill:#42210b;}.cls-11,.cls-16{fill:#fff;}.cls-11{stroke-width:0.46px;}.cls-12{stroke-width:1.76px;}.cls-13{stroke-width:1.94px;}.cls-14{stroke-width:8px;}.cls-15{stroke-width:3px;}.cls-16,.cls-17{stroke-width:0.75px;}.cls-17{fill:url(#Bugaboo);}.cls-18{fill:aqua;}</style><pattern id="Bugaboo" data-name="Bugaboo" width="334.21" height="190.18" patternUnits="userSpaceOnUse" viewBox="0 0 334.21 190.18"><rect class="cls-1" width="334.21" height="190.18"/><path class="cls-2" d="M312.57,228.07a5.59,5.59,0,0,1-7.16,3.38c-.68-.24-16.58-9-32.59-16.6a12.61,12.61,0,0,1-1.72,2.9s46.42,49,47.57,50.41a5.6,5.6,0,1,1-8.56,7.22c-1.15-1.35-42.26-54.73-42.26-54.73a12.71,12.71,0,0,1-3.85,1.62s1.08,30.92,1,32.47a5.6,5.6,0,0,1-5.74,5.46l-.33,0a5.6,5.6,0,0,1-5.13-5.73c0-1.53,4.53-32.11,4.53-32.11a12.8,12.8,0,0,1-3.18-1.13S230,265.59,228.78,267.36a5.6,5.6,0,0,1-9.22-6.37c1.22-1.76,33.45-41.18,33.45-41.18a14,14,0,0,1-1.2-1.11c-10.19,10.77-25.46,26.88-26.31,27.59a5.6,5.6,0,1,1-7.22-8.56c.85-.71,19.42-13.14,31.75-21.38-.12-.21-.26-.41-.37-.63,0,0-45.48,18.23-47.22,18.78a5.38,5.38,0,0,1-2.18.25,5.58,5.58,0,0,1-4.86-3.87,5.52,5.52,0,0,1,.35-4.27,5.59,5.59,0,0,1,3.27-2.78c1.74-.55,49.34-12,49.34-12a13.18,13.18,0,0,1-.13-3.15,8.09,8.09,0,0,1,.12-.86s-37.52-6.64-39.4-7.17a5.61,5.61,0,0,1,2-11,5.48,5.48,0,0,1,1.06.19c1.89.54,37.32,14.64,37.32,14.64a12.9,12.9,0,0,1,2.75-3.93s-44.1-46.3-45.48-47.94a5.6,5.6,0,1,1,8.56-7.23c1.39,1.64,39,53.57,39,53.57a12.52,12.52,0,0,1,1.69-.91c-7.19-15.74-19.53-42.8-19.76-43.49a5.6,5.6,0,1,1,10.59-3.64c.24.68,7.27,29.58,11.36,46.39a12.5,12.5,0,0,1,2.75-.4s-1.11-31.08-.95-33a5.6,5.6,0,1,1,11.16.94c-.16,1.9-6.51,32.49-6.51,32.49a13.19,13.19,0,0,1,3.13,1.34s26.37-46.34,27.6-48.12a5.6,5.6,0,1,1,9.24,6.33c-1.23,1.79-34.82,43.27-34.82,43.27a12.94,12.94,0,0,1,3.31,4.66s45-11.8,46.58-12.09a5.89,5.89,0,0,1,1.51-.07,5.6,5.6,0,0,1,.55,11.09c-1.55.29-47.68,6.42-47.68,6.42,0,.21,0,.43,0,.64a14.74,14.74,0,0,1-.26,1.64c17.1,4.53,34.93,8.16,35.61,8.4A5.61,5.61,0,0,1,312.57,228.07Zm-42.31-17.51a9.26,9.26,0,1,0-10,8.45A9.27,9.27,0,0,0,270.26,210.56Z"/><path class="cls-3" d="M257.13,219.09a8.34,8.34,0,0,1,3-11.39c.92-.53,24.68-9.59,48.69-20.45a19.19,19.19,0,0,1-1.65-4.74s-87.74,5.73-90.39,5.73a8.33,8.33,0,0,1,0-16.66c2.64,0,90.22,4.46,90.22,4.46a19,19,0,0,1,1.85-5.93s-36.17-28.4-37.89-29.93a8.36,8.36,0,0,1-.69-11.76l.34-.36a8.34,8.34,0,0,1,11.42-.33c1.71,1.52,32.14,35.93,32.14,35.93a18.7,18.7,0,0,1,4.32-2.54S292.25,90,291.41,86.89a8.32,8.32,0,0,1,5.85-10.22,8.33,8.33,0,0,1,10.23,5.85C308.32,85.59,322.2,160,322.2,160a18,18,0,0,1,2.42-.3c-2.47-21.9-6.13-54.69-6.13-56.33a8.33,8.33,0,1,1,16.65,0c0,1.65-3.68,34.66-6.15,56.56l1.08.18S353,91,354,88.46a8.13,8.13,0,0,1,1.8-2.71,8.32,8.32,0,0,1,13.59,9c-1,2.52-33.67,67.55-33.67,67.55a19,19,0,0,1,3.71,2.87c.31.31.59.64.87,1,0,0,43.5-36.26,45.91-37.88a8.33,8.33,0,0,1,10.55,12.79,9.41,9.41,0,0,1-1.24,1c-2.42,1.62-52.39,28.36-52.39,28.36a19.2,19.2,0,0,1,1.82,6.88s78.48-5.7,81.66-5.7a8.33,8.33,0,1,1,0,16.65c-3.19,0-81.78-7.1-81.78-7.1a19.24,19.24,0,0,1-.59,2.79c24.77,6.92,67.33,18.84,68.35,19.23a8.33,8.33,0,0,1-6,15.53c-1-.39-40.58-20.1-63.59-31.57a19,19,0,0,1-2.18,3.51s36.37,28.53,38.37,30.53A8.33,8.33,0,0,1,367.38,233c-2-2-30.66-38.54-30.66-38.54a19.45,19.45,0,0,1-4.53,2.28s22.63,56.17,23.48,59.27a8.33,8.33,0,1,1-16.05,4.43c-.86-3.11-11-62.83-11-62.83a19.25,19.25,0,0,1-8.46-.7s-29.77,62.45-30.92,64.49a8.81,8.81,0,0,1-1.36,1.79,8.34,8.34,0,0,1-13.92-3.68,8.26,8.26,0,0,1,.79-6.32c1.15-2.05,38.4-60.32,38.4-60.32-.23-.21-.48-.41-.7-.64a17.68,17.68,0,0,1-1.61-1.87c-21.54,15.09-41.36,31.22-42.28,31.75A8.35,8.35,0,0,1,257.13,219.09Zm59.05-30.63a13.77,13.77,0,1,0,0-19.47A13.79,13.79,0,0,0,316.18,188.46Z"/><path class="cls-4" d="M436.58,273.84a6.36,6.36,0,0,1-8.85-1.64c-.46-.67-16.51-29.85-26.21-47.51a14.55,14.55,0,0,1-3.51,1.53s6.93,32.68,7.08,34.7a6.37,6.37,0,0,1-5.85,6.84,6.35,6.35,0,0,1-6.84-5.85c-.16-2,.68-35.17.68-35.17a14.43,14.43,0,0,1-4.63-1.06s-19.5,29.25-20.57,30.65a6.36,6.36,0,0,1-8.92,1.22l-.3-.23a6.38,6.38,0,0,1-.92-8.69c1.05-1.39,25.48-26.62,25.48-26.62a14.35,14.35,0,0,1-2.19-3.15s-52.68,24.24-55,25.06a6.35,6.35,0,0,1-6.28-1.16,6.47,6.47,0,0,1-1.86-2.69,6.38,6.38,0,0,1,3.86-8.14c2.29-.82,58.18-15.8,58.18-15.8a16,16,0,0,1-.37-1.83c-16.54,3.18-41.32,7.91-42.57,8a6.36,6.36,0,1,1-1-12.69c1.25-.1,26.64.75,43.48,1.33,0-.27,0-.55.07-.83,0,0-28.27-5-30.25-5.66a6.21,6.21,0,0,1-2.17-1.22,6.36,6.36,0,0,1,6.1-10.89c2,.64,27.7,13.34,27.7,13.34a15.16,15.16,0,0,1,2-3c.22-.25.46-.48.69-.72,0,0-30.21-31-31.6-32.75a6.37,6.37,0,0,1,9.13-8.8,6,6,0,0,1,.85.89c1.38,1.74,24.73,38.25,24.73,38.25a14.48,14.48,0,0,1,5.13-1.79s-7.25-37.17-7.44-39.6a6.26,6.26,0,0,1,1.51-4.63,6.36,6.36,0,0,1,11.18,3.64c.19,2.44-2.31,40.45-2.31,40.45a14.48,14.48,0,0,1,2.17.28c3.81-19.29,10.37-52.43,10.61-53.23a6.36,6.36,0,1,1,12.19,3.66c-.23.8-12.91,32.12-20.29,50.34a14.66,14.66,0,0,1,2.8,1.46s13.41-22.25,14.81-23.89a6.37,6.37,0,0,1,9.68,8.28c-1.41,1.64-21.38,18.49-21.38,18.49a14.6,14.6,0,0,1,2,3.31s38.08-19.12,40.39-20a6.37,6.37,0,1,1,4.32,12c-2.31.83-43.83,10.69-43.83,10.69a14.66,14.66,0,0,1,0,6.49s34.95,12.33,36.57,13.09a6.57,6.57,0,0,1,1.44.93,6.37,6.37,0,0,1-6.84,10.6c-1.63-.76-33.84-19-33.84-19-.14.19-.29.39-.44.57a15.3,15.3,0,0,1-1.33,1.34c12.78,15.53,34,41.29,34.44,42A6.37,6.37,0,0,1,436.58,273.84ZM402,219a10.52,10.52,0,1,0-14.84,1.16A10.54,10.54,0,0,0,402,219Z"/><path class="cls-5" d="M352.38,138.81a4.25,4.25,0,0,1-5.71-1.84c-.24-.48-8.33-21.15-13.21-33.66A9.77,9.77,0,0,1,331,104s1.76,22.18,1.69,23.53a4.24,4.24,0,1,1-8.47-.44c.07-1.34,3.48-23.17,3.48-23.17a9.8,9.8,0,0,1-3-1.11s-15.4,17.65-16.23,18.48a4.25,4.25,0,0,1-6,0l-.17-.18a4.25,4.25,0,0,1,.13-5.82c.82-.83,19.13-15.39,19.13-15.39a9.59,9.59,0,0,1-1.17-2.27s-36.9,11.47-38.49,11.82a4.26,4.26,0,0,1-4.05-1.31,4.33,4.33,0,0,1-1-1.94,4.2,4.2,0,0,1,.58-3.2,4.25,4.25,0,0,1,2.67-1.85c1.58-.34,39.8-5.42,39.8-5.42a10.19,10.19,0,0,1-.08-1.24c-11.21.67-28,1.66-28.82,1.62a4.24,4.24,0,1,1,.44-8.47c.83,0,17.53,2.8,28.61,4.63,0-.18.07-.36.12-.54,0,0-18.25-5.75-19.5-6.35a4.25,4.25,0,0,1,.39-7.83,4.26,4.26,0,0,1,3.25.16C305.6,78.38,321.5,89,321.5,89a9.53,9.53,0,0,1,1.56-1.81c.16-.15.34-.28.51-.42,0,0-17.29-23.09-18.05-24.36a4.25,4.25,0,0,1,6.79-5,4,4,0,0,1,.49.66c.76,1.27,13,27.4,13,27.4a9.77,9.77,0,0,1,3.55-.74s-1.59-25.18-1.51-26.8a4.25,4.25,0,0,1,8.48.44c-.09,1.63-5,26.52-5,26.52a10,10,0,0,1,1.4.38c4.18-12.42,11.37-33.75,11.6-34.26a4.24,4.24,0,0,1,7.74,3.47c-.22.51-11.3,20.11-17.75,31.51a9.62,9.62,0,0,1,1.73,1.21s10.78-13.55,11.85-14.51a4.24,4.24,0,1,1,5.67,6.3c-1.07,1-15.72,10.38-15.72,10.38a9.7,9.7,0,0,1,1,2.36s26.81-9.35,28.41-9.71a4.23,4.23,0,0,1,5.05,3.23,4.24,4.24,0,0,1-3.23,5.06c-1.6.35-29.88,3.29-29.88,3.29a9.93,9.93,0,0,1-.58,4.28s22,11.16,23,11.8a4.49,4.49,0,0,1,.88.74,4.24,4.24,0,0,1-2.24,7,4.15,4.15,0,0,1-3.2-.57c-1-.64-20.71-15.49-20.71-15.49l-.35.34a10.5,10.5,0,0,1-1,.77c7.1,11.36,18.89,30.21,19.14,30.69A4.24,4.24,0,0,1,352.38,138.81ZM334.26,99.62a7,7,0,1,0-9.9-.52A7,7,0,0,0,334.26,99.62Z"/><path class="cls-3" d="M90,314.18a8.35,8.35,0,0,1,3-11.39c.93-.53,24.69-9.59,48.7-20.45a18.41,18.41,0,0,1-1.65-4.74s-87.75,5.73-90.4,5.73a8.33,8.33,0,0,1,0-16.66c2.64,0,90.22,4.46,90.22,4.46a19,19,0,0,1,1.85-5.93s-36.16-28.4-37.88-29.93a8.33,8.33,0,0,1-.69-11.76l.34-.36a8.34,8.34,0,0,1,11.42-.33c1.7,1.52,32.13,35.93,32.13,35.93a19,19,0,0,1,4.33-2.54S125.15,185.06,124.31,182a8.33,8.33,0,1,1,16.07-4.37c.83,3.07,14.71,77.47,14.71,77.47a19.73,19.73,0,0,1,2.42-.29c-2.46-21.9-6.13-54.69-6.13-56.34a8.33,8.33,0,1,1,16.66,0c0,1.65-3.69,34.66-6.16,56.56l1.08.18s22.88-69.12,23.92-71.64a8.16,8.16,0,0,1,1.81-2.71,8.33,8.33,0,0,1,13.59,9c-1,2.52-33.67,67.55-33.67,67.55a19,19,0,0,1,3.7,2.87c.31.31.59.64.87,1,0,0,43.5-36.26,45.91-37.88a8.33,8.33,0,0,1,10.55,12.79,8.11,8.11,0,0,1-1.24,1C226,238.83,176,265.57,176,265.57a19,19,0,0,1,1.82,6.88s78.48-5.7,81.67-5.7a8.33,8.33,0,1,1,0,16.65c-3.2,0-81.79-7.1-81.79-7.1a19.24,19.24,0,0,1-.59,2.79c24.77,6.92,67.33,18.84,68.35,19.23a8.33,8.33,0,1,1-6,15.53c-1-.39-40.58-20.1-63.58-31.57a19.55,19.55,0,0,1-2.19,3.51s36.38,28.53,38.37,30.53a8.32,8.32,0,1,1-11.77,11.77c-2-2-30.67-38.54-30.67-38.54a19.58,19.58,0,0,1-4.52,2.28S187.71,348,188.57,351.1a8.33,8.33,0,0,1-16.06,4.43c-.85-3.11-11-62.83-11-62.83A19.25,19.25,0,0,1,153,292s-29.76,62.45-30.92,64.49a8.46,8.46,0,0,1-1.36,1.79,8.33,8.33,0,0,1-13.13-10c1.16-2,38.4-60.32,38.4-60.32-.23-.21-.47-.41-.7-.64a18.93,18.93,0,0,1-1.61-1.87c-21.54,15.09-41.35,31.21-42.28,31.75A8.35,8.35,0,0,1,90,314.18Zm59.05-30.63a13.77,13.77,0,1,0,0-19.47A13.8,13.8,0,0,0,149.07,283.55Z"/><path class="cls-5" d="M185.28,233.9a4.24,4.24,0,0,1-5.71-1.84c-.25-.48-8.33-21.15-13.22-33.66a9.77,9.77,0,0,1-2.46.72s1.77,22.18,1.69,23.53a4.16,4.16,0,0,1-1.39,2.93,4.25,4.25,0,0,1-7.08-3.37c.07-1.34,3.49-23.17,3.49-23.17a9.7,9.7,0,0,1-3-1.11s-15.41,17.65-16.24,18.48a4.25,4.25,0,0,1-6,0l-.17-.18a4.24,4.24,0,0,1,.14-5.82c.81-.83,19.13-15.39,19.13-15.39a10,10,0,0,1-1.18-2.27s-36.89,11.47-38.48,11.82a4.27,4.27,0,0,1-4.06-1.31,4.33,4.33,0,0,1-1-1.94,4.25,4.25,0,0,1,3.25-5.05c1.59-.34,39.81-5.42,39.81-5.42a10.19,10.19,0,0,1-.09-1.24c-11.21.67-28,1.66-28.82,1.62a4.24,4.24,0,1,1,.44-8.47c.84,0,17.53,2.8,28.61,4.63,0-.18.07-.36.12-.54,0,0-18.24-5.75-19.5-6.35a4.32,4.32,0,0,1-1.33-1,4.25,4.25,0,0,1,5-6.68c1.25.6,17.15,11.21,17.15,11.21a9.53,9.53,0,0,1,1.56-1.81c.17-.15.34-.28.52-.42,0,0-17.29-23.09-18.06-24.36a4.25,4.25,0,0,1,6.79-5,4,4,0,0,1,.49.66c.76,1.27,13,27.4,13,27.4a9.68,9.68,0,0,1,3.55-.74s-1.6-25.18-1.51-26.8a4.23,4.23,0,0,1,1.4-2.93,4.25,4.25,0,0,1,6,.31,4.24,4.24,0,0,1,1.08,3.06c-.08,1.63-5,26.52-5,26.52a10.14,10.14,0,0,1,1.41.38c4.18-12.42,11.37-33.75,11.6-34.26a4.24,4.24,0,0,1,7.74,3.47c-.23.51-11.31,20.11-17.75,31.51a9.55,9.55,0,0,1,1.72,1.21s10.78-13.55,11.85-14.51a4.24,4.24,0,1,1,5.68,6.3c-1.08,1-15.72,10.38-15.72,10.38a9.67,9.67,0,0,1,1,2.36s26.81-9.35,28.41-9.71a4.24,4.24,0,1,1,1.83,8.29c-1.61.35-29.89,3.29-29.89,3.29a9.64,9.64,0,0,1-.58,4.28s22,11.16,23,11.8a4.43,4.43,0,0,1,.87.74,4.24,4.24,0,0,1,.42,5.12,4.18,4.18,0,0,1-2.66,1.86,4.12,4.12,0,0,1-3.19-.57c-1-.64-20.72-15.49-20.72-15.49s-.22.23-.34.34a12.1,12.1,0,0,1-1,.77c7.11,11.36,18.89,30.2,19.14,30.69A4.24,4.24,0,0,1,185.28,233.9Zm-18.12-39.19a7,7,0,1,0-9.91-.52A7,7,0,0,0,167.16,194.71Z"/><path class="cls-3" d="M-77.08,219.09a8.34,8.34,0,0,1,3-11.39c.92-.53,24.68-9.59,48.69-20.45A19.19,19.19,0,0,1-27,182.51s-87.74,5.73-90.4,5.73a8.27,8.27,0,0,1-5.88-2.44,8.25,8.25,0,0,1-2.44-5.89,8.27,8.27,0,0,1,2.44-5.89,8.27,8.27,0,0,1,5.89-2.44c2.63,0,90.21,4.46,90.21,4.46a19,19,0,0,1,1.85-5.93s-36.16-28.4-37.88-29.93A8.3,8.3,0,0,1-66,134.44a8.3,8.3,0,0,1,2.09-6l.34-.36a8.34,8.34,0,0,1,11.42-.33c1.7,1.52,32.13,35.93,32.13,35.93a19,19,0,0,1,4.33-2.54S-42,90-42.8,86.89a8.35,8.35,0,0,1,2.15-8.08,8.32,8.32,0,0,1,3.7-2.14,8.26,8.26,0,0,1,6.32.8,8.28,8.28,0,0,1,3.9,5C-25.89,85.59-12,160-12,160a18,18,0,0,1,2.42-.3c-2.46-21.9-6.12-54.69-6.12-56.33A8.34,8.34,0,0,1-7.4,95a8.34,8.34,0,0,1,8.33,8.33C.93,105-2.76,138-5.22,159.92c.35.06.72.11,1.07.18,0,0,22.88-69.12,23.92-71.64a8.16,8.16,0,0,1,1.81-2.71,8.32,8.32,0,0,1,13.59,9c-1,2.52-33.67,67.55-33.67,67.55a19,19,0,0,1,3.71,2.87c.31.31.58.64.87,1,0,0,43.49-36.26,45.91-37.88a8.33,8.33,0,0,1,9.3,13.82c-2.41,1.62-52.38,28.36-52.38,28.36a19.2,19.2,0,0,1,1.82,6.88s78.47-5.7,81.66-5.7a8.33,8.33,0,1,1,0,16.65c-3.19,0-81.78-7.1-81.78-7.1A19.24,19.24,0,0,1,10,184c24.76,6.92,67.33,18.84,68.34,19.23a8.33,8.33,0,1,1-6,15.53c-1-.39-40.57-20.1-63.58-31.57a19,19,0,0,1-2.18,3.51S43,219.23,44.94,221.23A8.32,8.32,0,1,1,33.17,233c-2-2-30.67-38.54-30.67-38.54A19.58,19.58,0,0,1-2,196.74S20.61,252.91,21.46,256a8.33,8.33,0,1,1-16,4.43c-.86-3.11-11-62.83-11-62.83a19.27,19.27,0,0,1-8.46-.7S-43.86,259.36-45,261.4a8.46,8.46,0,0,1-1.36,1.79,8.35,8.35,0,0,1-10,1.35,8.35,8.35,0,0,1-3.92-5,8.26,8.26,0,0,1,.79-6.32c1.15-2.05,38.4-60.32,38.4-60.32-.24-.21-.48-.41-.71-.64a17.58,17.58,0,0,1-1.6-1.87C-45,205.45-64.77,221.58-65.7,222.11A8.34,8.34,0,0,1-77.08,219.09ZM-18,188.46a13.79,13.79,0,0,0,19.46,0,13.78,13.78,0,0,0,0-19.47A13.78,13.78,0,0,0-18,169,13.79,13.79,0,0,0-18,188.46Z"/><path class="cls-4" d="M102.37,273.84a6.36,6.36,0,0,1-8.85-1.64c-.46-.67-16.51-29.85-26.21-47.51a14.55,14.55,0,0,1-3.51,1.53s6.92,32.68,7.08,34.7a6.37,6.37,0,0,1-12.7,1c-.15-2,.69-35.17.69-35.17a14.37,14.37,0,0,1-4.63-1.06s-19.51,29.25-20.57,30.65a6.36,6.36,0,0,1-8.92,1.22l-.3-.23a6.39,6.39,0,0,1-.93-8.69C24.58,247.24,49,222,49,222a14,14,0,0,1-2.19-3.15s-52.68,24.24-55,25.06a6.37,6.37,0,0,1-6.29-1.16,6.54,6.54,0,0,1-1.85-2.69,6.38,6.38,0,0,1,.24-4.87,6.33,6.33,0,0,1,3.62-3.27c2.29-.82,58.18-15.8,58.18-15.8a16,16,0,0,1-.37-1.83c-16.54,3.18-41.32,7.91-42.57,8a6.36,6.36,0,1,1-1-12.69c1.25-.1,26.64.75,43.47,1.33,0-.27,0-.55.08-.83,0,0-28.27-5-30.25-5.66a6.25,6.25,0,0,1-2.18-1.22A6.36,6.36,0,0,1,19,192.35c2,.64,27.71,13.34,27.71,13.34a14.73,14.73,0,0,1,2-3c.22-.25.46-.48.69-.72,0,0-30.22-31-31.6-32.75a6.37,6.37,0,0,1,9.13-8.8,6,6,0,0,1,.85.89c1.38,1.74,24.73,38.25,24.73,38.25a14.41,14.41,0,0,1,5.13-1.79s-7.26-37.17-7.45-39.6a6.37,6.37,0,0,1,12.7-1c.19,2.44-2.31,40.45-2.31,40.45a14.48,14.48,0,0,1,2.17.28c3.81-19.29,10.37-52.43,10.61-53.23a6.36,6.36,0,1,1,12.19,3.66c-.24.8-12.92,32.12-20.3,50.34a14.09,14.09,0,0,1,2.8,1.46s13.42-22.25,14.82-23.89a6.37,6.37,0,1,1,9.67,8.28C91.12,186.17,71.15,203,71.15,203a14.64,14.64,0,0,1,2,3.31s38.08-19.12,40.39-20a6.37,6.37,0,1,1,4.32,12C115.56,199.18,74,209,74,209a14.81,14.81,0,0,1,0,6.49s35,12.33,36.58,13.09a6.57,6.57,0,0,1,1.44.93,6.36,6.36,0,0,1-2,10.82,6.31,6.31,0,0,1-4.86-.22c-1.63-.76-33.84-19-33.84-19-.15.19-.29.39-.45.57A13.93,13.93,0,0,1,69.57,223c12.77,15.53,34,41.29,34.43,42A6.37,6.37,0,0,1,102.37,273.84ZM67.79,219A10.52,10.52,0,1,0,53,220.19,10.53,10.53,0,0,0,67.79,219Z"/><path class="cls-5" d="M18.17,138.81A4.25,4.25,0,0,1,12.46,137c-.24-.48-8.33-21.15-13.22-33.66a9.7,9.7,0,0,1-2.45.72s1.76,22.18,1.69,23.53a4.21,4.21,0,0,1-1.4,2.93A4.21,4.21,0,0,1-6,131.58a4.23,4.23,0,0,1-2.93-1.4A4.25,4.25,0,0,1-10,127.12C-9.92,125.78-6.51,104-6.51,104a9.8,9.8,0,0,1-3-1.11s-15.41,17.65-16.23,18.48a4.18,4.18,0,0,1-3,1.26,4.17,4.17,0,0,1-3-1.22l-.18-.18a4.24,4.24,0,0,1,.14-5.82c.82-.83,19.13-15.39,19.13-15.39a9.59,9.59,0,0,1-1.17-2.27s-36.9,11.47-38.49,11.82a4.25,4.25,0,0,1-4-1.31,4.23,4.23,0,0,1-1-1.94,4.2,4.2,0,0,1,.58-3.2,4.25,4.25,0,0,1,2.67-1.85c1.58-.34,39.8-5.42,39.8-5.42a10.19,10.19,0,0,1-.09-1.24c-11.2.67-28,1.66-28.82,1.62a4.24,4.24,0,0,1-4-4.46,4.24,4.24,0,0,1,4.45-4c.84,0,17.54,2.8,28.61,4.63.05-.18.08-.36.13-.54,0,0-18.25-5.75-19.5-6.35a4.36,4.36,0,0,1-1.34-1,4.23,4.23,0,0,1-.68-4.66,4.24,4.24,0,0,1,2.41-2.18,4.23,4.23,0,0,1,3.24.16C-28.61,78.38-12.71,89-12.71,89a9.53,9.53,0,0,1,1.56-1.81c.16-.15.34-.28.51-.42,0,0-17.29-23.09-18-24.36a4.25,4.25,0,0,1,1.45-5.82,4.25,4.25,0,0,1,5.33.79,3.53,3.53,0,0,1,.49.66c.77,1.27,13,27.4,13,27.4a9.72,9.72,0,0,1,3.55-.74s-1.59-25.18-1.51-26.8A4.23,4.23,0,0,1-4.94,55a4.2,4.2,0,0,1,3.06-1.08,4.22,4.22,0,0,1,2.93,1.39,4.25,4.25,0,0,1,1.09,3.06c-.09,1.63-5,26.52-5,26.52a9.78,9.78,0,0,1,1.41.38C2.71,72.81,9.9,51.48,10.13,51a4.24,4.24,0,0,1,7.74,3.47C17.64,55,6.57,74.55.12,86a9.21,9.21,0,0,1,1.72,1.21S12.63,73.61,13.69,72.65A4.24,4.24,0,0,1,19.37,79c-1.07,1-15.72,10.38-15.72,10.38a9.7,9.7,0,0,1,1,2.36S31.5,82.34,33.09,82a4.24,4.24,0,0,1,1.83,8.29C33.32,90.62,5,93.56,5,93.56a9.79,9.79,0,0,1-.59,4.28s22,11.16,23,11.8a4.15,4.15,0,0,1,.87.74,4.24,4.24,0,0,1-2.23,7,4.15,4.15,0,0,1-3.2-.57c-1-.64-20.72-15.49-20.72-15.49s-.22.23-.34.34a12,12,0,0,1-1,.77C8,113.77,19.76,132.62,20,133.1A4.24,4.24,0,0,1,18.17,138.81ZM.05,99.62a7,7,0,0,0,.52-9.9,7,7,0,0,0-9.9-.52,7,7,0,0,0-.52,9.9A7,7,0,0,0,.05,99.62Z"/><path class="cls-2" d="M312.57,37.89a5.59,5.59,0,0,1-7.16,3.38c-.68-.24-16.58-9-32.59-16.6a12.61,12.61,0,0,1-1.72,2.9s46.42,49,47.57,50.41a5.6,5.6,0,1,1-8.56,7.22c-1.15-1.35-42.26-54.73-42.26-54.73A12.71,12.71,0,0,1,264,32.09s1.08,30.92,1,32.47A5.6,5.6,0,0,1,259.3,70L259,70a5.6,5.6,0,0,1-5.13-5.73c0-1.53,4.53-32.11,4.53-32.11A12.8,12.8,0,0,1,255.19,31S230,75.41,228.78,77.18a5.6,5.6,0,0,1-9.22-6.37C220.78,69.05,253,29.63,253,29.63a14,14,0,0,1-1.2-1.11C241.62,39.29,226.35,55.4,225.5,56.11a5.6,5.6,0,0,1-7.22-8.56c.85-.71,19.42-13.14,31.75-21.38-.12-.21-.26-.41-.37-.63,0,0-45.48,18.23-47.22,18.79A5.6,5.6,0,0,1,199,33.66c1.74-.56,49.34-12,49.34-12a13.18,13.18,0,0,1-.13-3.15,8.09,8.09,0,0,1,.12-.86S210.83,11,209,10.48a5.61,5.61,0,0,1,2-11A5.48,5.48,0,0,1,212-.31c1.89.54,37.32,14.64,37.32,14.64a12.9,12.9,0,0,1,2.75-3.93S208-35.9,206.6-37.54a5.55,5.55,0,0,1-1.3-4.09,5.57,5.57,0,0,1,2-3.81,5.55,5.55,0,0,1,4.08-1.3,5.57,5.57,0,0,1,3.81,2c1.39,1.64,39,53.57,39,53.57a12.52,12.52,0,0,1,1.69-.91C248.61-7.85,236.27-34.91,236-35.6a5.6,5.6,0,0,1,3.47-7.12,5.6,5.6,0,0,1,7.12,3.48c.24.69,7.27,29.58,11.36,46.39a12.5,12.5,0,0,1,2.75-.4s-1.11-31.08-.95-33a5.6,5.6,0,0,1,6-5.11,5.6,5.6,0,0,1,5.11,6c-.16,1.9-6.51,32.49-6.51,32.49a13.19,13.19,0,0,1,3.13,1.34s26.37-46.34,27.6-48.12a5.61,5.61,0,0,1,5.1-2.42A5.57,5.57,0,0,1,303-41a5.61,5.61,0,0,1,1.46,7.79C303.18-31.45,269.59,10,269.59,10a12.94,12.94,0,0,1,3.31,4.66s45-11.8,46.58-12.09A5.89,5.89,0,0,1,321,2.53a5.6,5.6,0,0,1,.55,11.09C320,13.91,273.86,20,273.86,20c0,.21,0,.43,0,.64a14.74,14.74,0,0,1-.26,1.64c17.1,4.53,34.93,8.16,35.61,8.4A5.61,5.61,0,0,1,312.57,37.89ZM270.26,20.38a9.26,9.26,0,1,0-10,8.45A9.27,9.27,0,0,0,270.26,20.38Z"/><path class="cls-3" d="M257.13,28.91a8.34,8.34,0,0,1,3-11.39c.92-.53,24.68-9.59,48.69-20.45a19.19,19.19,0,0,1-1.65-4.74s-87.74,5.73-90.39,5.73a8.27,8.27,0,0,1-5.89-2.44,8.25,8.25,0,0,1-2.44-5.89,8.27,8.27,0,0,1,2.44-5.89,8.29,8.29,0,0,1,5.89-2.44c2.64,0,90.22,4.46,90.22,4.46a19,19,0,0,1,1.85-5.93S272.71-48.47,271-50a8.29,8.29,0,0,1-2.77-5.74,8.27,8.27,0,0,1,2.08-6l.34-.36a8.34,8.34,0,0,1,11.42-.33c1.71,1.52,32.14,35.93,32.14,35.93a18.7,18.7,0,0,1,4.32-2.54s-26.27-71.15-27.11-74.23a8.35,8.35,0,0,1,2.15-8.08,8.32,8.32,0,0,1,3.7-2.14,8.25,8.25,0,0,1,6.32.8,8.3,8.3,0,0,1,3.91,5c.83,3.07,14.71,77.48,14.71,77.48a18,18,0,0,1,2.42-.3c-2.47-21.9-6.13-54.69-6.13-56.33a8.34,8.34,0,0,1,8.33-8.34,8.33,8.33,0,0,1,8.32,8.33c0,1.65-3.68,34.66-6.15,56.56l1.08.18S353-99.2,354-101.72a8.13,8.13,0,0,1,1.8-2.71,8.31,8.31,0,0,1,9.06-1.82,8.28,8.28,0,0,1,4.52,4.5,8.26,8.26,0,0,1,0,6.38c-1,2.51-33.67,67.54-33.67,67.54A19,19,0,0,1,339.42-25c.31.31.59.64.87,1,0,0,43.5-36.25,45.91-37.88a8.35,8.35,0,0,1,11.56,2.25,8.34,8.34,0,0,1-1,10.54,9.41,9.41,0,0,1-1.24,1c-2.42,1.62-52.39,28.36-52.39,28.36a19.2,19.2,0,0,1,1.82,6.88s78.48-5.7,81.66-5.7a8.27,8.27,0,0,1,5.89,2.44,8.23,8.23,0,0,1,2.44,5.89A8.3,8.3,0,0,1,432.5-4.3a8.31,8.31,0,0,1-5.9,2.43c-3.19,0-81.78-7.1-81.78-7.1a19.24,19.24,0,0,1-.59,2.79C369,.75,411.56,12.66,412.58,13.05a8.33,8.33,0,0,1-6,15.53C405.55,28.19,366,8.48,343-3A18.63,18.63,0,0,1,340.79.52s36.37,28.53,38.37,30.53a8.33,8.33,0,0,1-11.78,11.77c-2-2-30.66-38.54-30.66-38.54a19.45,19.45,0,0,1-4.53,2.28s22.63,56.17,23.48,59.27a8.33,8.33,0,1,1-16.05,4.43c-.86-3.11-11-62.83-11-62.83a19.25,19.25,0,0,1-8.46-.7S290.35,69.18,289.2,71.22A8.81,8.81,0,0,1,287.84,73a8.34,8.34,0,0,1-13.92-3.68,8.26,8.26,0,0,1,.79-6.32c1.15-2,38.4-60.32,38.4-60.32-.23-.21-.48-.41-.7-.64A17.68,17.68,0,0,1,310.8.18c-21.54,15.09-41.36,31.22-42.28,31.75A8.34,8.34,0,0,1,257.13,28.91ZM316.18-1.72a13.79,13.79,0,0,0,19.46,0,13.79,13.79,0,0,0,0-19.47,13.78,13.78,0,0,0-19.47,0A13.78,13.78,0,0,0,316.18-1.72Z"/><path class="cls-4" d="M436.58,83.66A6.36,6.36,0,0,1,427.73,82c-.46-.67-16.51-29.85-26.21-47.51A14.55,14.55,0,0,1,398,36s6.93,32.68,7.08,34.7a6.37,6.37,0,0,1-5.85,6.84,6.35,6.35,0,0,1-6.84-5.85c-.16-2,.68-35.17.68-35.17a14.43,14.43,0,0,1-4.63-1.06S369,64.75,367.88,66.15A6.36,6.36,0,0,1,359,67.37l-.3-.23a6.38,6.38,0,0,1-.92-8.69c1.05-1.39,25.48-26.62,25.48-26.62A14.35,14.35,0,0,1,381,28.68s-52.68,24.24-55,25.06a6.37,6.37,0,0,1-4.28-12C324.06,40.93,380,26,380,26a16,16,0,0,1-.37-1.83C363,27.3,338.26,32,337,32.13a6.36,6.36,0,0,1-1-12.69c1.25-.1,26.64.76,43.48,1.33,0-.27,0-.55.07-.83,0,0-28.27-5-30.25-5.66a6.21,6.21,0,0,1-2.17-1.22,6.36,6.36,0,0,1,6.1-10.89c2,.64,27.7,13.34,27.7,13.34a15.16,15.16,0,0,1,2-3c.22-.25.46-.48.69-.72,0,0-30.21-31-31.6-32.75a6.38,6.38,0,0,1,1-8.94,6.38,6.38,0,0,1,8.09.14,6,6,0,0,1,.85.89c1.38,1.74,24.73,38.25,24.73,38.25a14.48,14.48,0,0,1,5.13-1.79S384.59-29.58,384.4-32a6.26,6.26,0,0,1,1.51-4.63,6.32,6.32,0,0,1,4.34-2.21,6.3,6.3,0,0,1,4.63,1.51A6.32,6.32,0,0,1,397.09-33c.19,2.44-2.31,40.45-2.31,40.45a15.9,15.9,0,0,1,2.17.28c3.81-19.29,10.37-52.43,10.61-53.23a6.38,6.38,0,0,1,7.93-4.27,6.37,6.37,0,0,1,4.26,7.93c-.23.8-12.91,32.12-20.29,50.34a14.66,14.66,0,0,1,2.8,1.46s13.41-22.25,14.81-23.89a6.38,6.38,0,0,1,9-.7,6.38,6.38,0,0,1,.7,9C425.34-4,405.37,12.84,405.37,12.84a14.82,14.82,0,0,1,2,3.31S445.45-3,447.76-3.81a6.4,6.4,0,0,1,6.31,1.15,6.38,6.38,0,0,1-2,10.83c-2.31.83-43.83,10.69-43.83,10.69a14.66,14.66,0,0,1,0,6.49s34.95,12.33,36.57,13.09a6.57,6.57,0,0,1,1.44.93A6.37,6.37,0,0,1,439.39,50c-1.63-.76-33.84-19-33.84-19-.14.19-.29.39-.44.57a15.3,15.3,0,0,1-1.33,1.34c12.78,15.53,34,41.29,34.44,42A6.37,6.37,0,0,1,436.58,83.66ZM402,28.85A10.52,10.52,0,1,0,387.17,30,10.54,10.54,0,0,0,402,28.85Z"/><path class="cls-2" d="M145.47,133a5.61,5.61,0,0,1-7.17,3.38c-.67-.24-16.58-9-32.58-16.6a13.37,13.37,0,0,1-1.72,2.9s46.42,49,47.57,50.41a5.6,5.6,0,0,1-4.76,9.19,5.53,5.53,0,0,1-3.81-2c-1.14-1.35-42.26-54.73-42.26-54.73a12.6,12.6,0,0,1-3.85,1.62s1.09,30.92,1,32.47a5.62,5.62,0,0,1-5.75,5.46l-.33,0a5.62,5.62,0,0,1-5.13-5.73c0-1.53,4.53-32.11,4.53-32.11a12.8,12.8,0,0,1-3.18-1.13s-25.19,44.38-26.4,46.15a5.61,5.61,0,1,1-9.23-6.37c1.22-1.76,33.46-41.18,33.46-41.18a12.62,12.62,0,0,1-1.2-1.11C74.52,134.38,59.24,150.49,58.4,151.2a5.6,5.6,0,1,1-7.23-8.56c.85-.71,19.42-13.14,31.76-21.38-.13-.21-.26-.41-.38-.63,0,0-45.47,18.23-47.22,18.78a5.38,5.38,0,0,1-2.18.25,5.6,5.6,0,0,1-1.24-10.91c1.75-.56,49.35-12,49.35-12a12.68,12.68,0,0,1-.14-3.15c0-.29.08-.58.12-.86,0,0-37.52-6.64-39.4-7.17a5.61,5.61,0,0,1,3.07-10.79c1.88.54,37.31,14.64,37.31,14.64A13.08,13.08,0,0,1,85,105.49S40.88,59.19,39.49,57.55a5.61,5.61,0,0,1,8.57-7.23C49.44,52,87,103.89,87,103.89a12.52,12.52,0,0,1,1.69-.91c-7.18-15.74-19.52-42.8-19.76-43.49a5.6,5.6,0,1,1,10.59-3.64c.24.69,7.27,29.58,11.36,46.39a12.5,12.5,0,0,1,2.75-.4s-1.11-31.08-.95-33a5.6,5.6,0,1,1,11.16.94c-.16,1.9-6.51,32.49-6.51,32.49a13.27,13.27,0,0,1,3.14,1.34s26.37-46.34,27.59-48.12a5.6,5.6,0,1,1,9.24,6.33c-1.22,1.79-34.82,43.27-34.82,43.27a12.94,12.94,0,0,1,3.31,4.66s45-11.8,46.58-12.09a5.89,5.89,0,0,1,1.51-.07,5.6,5.6,0,0,1,.56,11.09c-1.56.29-47.68,6.42-47.68,6.42,0,.21,0,.43,0,.64a11.2,11.2,0,0,1-.26,1.64c17.11,4.53,34.93,8.16,35.61,8.4A5.62,5.62,0,0,1,145.47,133Zm-42.31-17.51a9.26,9.26,0,1,0-10,8.45A9.27,9.27,0,0,0,103.16,115.47Z"/><path class="cls-3" d="M90,124a8.35,8.35,0,0,1,3-11.39c.93-.53,24.69-9.59,48.7-20.45a18.41,18.41,0,0,1-1.65-4.74s-87.75,5.73-90.4,5.73a8.33,8.33,0,0,1,0-16.66c2.64,0,90.22,4.46,90.22,4.46A19,19,0,0,1,141.77,75s-36.16-28.4-37.88-29.93a8.33,8.33,0,0,1-.69-11.76l.34-.36A8.34,8.34,0,0,1,115,32.64c1.7,1.52,32.13,35.93,32.13,35.93A19,19,0,0,1,151.42,66S125.15-5.12,124.31-8.2a8.33,8.33,0,0,1,2.15-8.08,8.27,8.27,0,0,1,3.7-2.14,8.26,8.26,0,0,1,6.32.8,8.32,8.32,0,0,1,3.9,5.05c.83,3.07,14.71,77.48,14.71,77.48a18,18,0,0,1,2.42-.3c-2.46-21.9-6.13-54.69-6.13-56.33a8.33,8.33,0,1,1,16.66,0c0,1.65-3.69,34.66-6.16,56.56.36.06.72.11,1.08.18,0,0,22.88-69.12,23.92-71.64a8.16,8.16,0,0,1,1.81-2.71,8.31,8.31,0,0,1,9.06-1.82,8.29,8.29,0,0,1,4.51,4.5,8.28,8.28,0,0,1,0,6.37c-1,2.52-33.67,67.55-33.67,67.55a19,19,0,0,1,3.7,2.87c.31.31.59.64.87,1,0,0,43.5-36.26,45.91-37.88A8.33,8.33,0,0,1,229.64,46a8.81,8.81,0,0,1-1.24,1C226,48.65,176,75.39,176,75.39a19,19,0,0,1,1.82,6.88s78.48-5.7,81.67-5.7a8.33,8.33,0,1,1,0,16.65c-3.2,0-81.79-7.1-81.79-7.1a19.24,19.24,0,0,1-.59,2.79c24.77,6.92,67.33,18.84,68.35,19.23a8.33,8.33,0,1,1-6,15.53c-1-.39-40.58-20.1-63.58-31.57a19.21,19.21,0,0,1-2.19,3.51s36.38,28.53,38.37,30.53a8.32,8.32,0,1,1-11.77,11.77c-2-2-30.67-38.54-30.67-38.54a19.58,19.58,0,0,1-4.52,2.28s22.62,56.17,23.48,59.27a8.33,8.33,0,0,1-16.06,4.43c-.85-3.11-11-62.83-11-62.83a19.25,19.25,0,0,1-8.46-.7s-29.76,62.45-30.92,64.49a8.46,8.46,0,0,1-1.36,1.79,8.33,8.33,0,0,1-13.91-3.68,8.26,8.26,0,0,1,.78-6.32c1.16-2,38.4-60.32,38.4-60.32-.23-.21-.47-.41-.7-.64a18.93,18.93,0,0,1-1.61-1.87c-21.54,15.09-41.35,31.22-42.28,31.75A8.34,8.34,0,0,1,90,124Zm59.05-30.63a13.77,13.77,0,1,0,0-19.47A13.8,13.8,0,0,0,149.07,93.37Z"/><path class="cls-4" d="M269.48,178.75a6.38,6.38,0,0,1-8.86-1.64c-.46-.67-16.5-29.85-26.2-47.51a14.45,14.45,0,0,1-3.52,1.53s6.93,32.68,7.09,34.7a6.37,6.37,0,0,1-12.7,1c-.15-2,.69-35.17.69-35.17a14.37,14.37,0,0,1-4.63-1.06s-19.51,29.25-20.57,30.65a6.36,6.36,0,0,1-8.92,1.22c-.11-.08-.21-.15-.3-.23a6.38,6.38,0,0,1-.93-8.69c1.06-1.39,25.48-26.62,25.48-26.62a14.35,14.35,0,0,1-2.19-3.15S161.25,148,159,148.83a6.37,6.37,0,1,1-4.29-12C157,136,212.85,121,212.85,121a14.12,14.12,0,0,1-.37-1.83c-16.55,3.18-41.32,7.91-42.58,8a6.36,6.36,0,0,1-1-12.69c1.26-.1,26.64.76,43.48,1.33,0-.27,0-.55.08-.83,0,0-28.27-5-30.25-5.66a6.25,6.25,0,0,1-2.18-1.22,6.36,6.36,0,0,1,6.1-10.89c2,.64,27.7,13.34,27.7,13.34a14.78,14.78,0,0,1,2-3c.22-.25.45-.48.68-.72,0,0-30.21-31-31.59-32.75a6.37,6.37,0,0,1,9.12-8.8,6.59,6.59,0,0,1,.86.89c1.38,1.74,24.72,38.25,24.72,38.25a14.53,14.53,0,0,1,5.14-1.79s-7.26-37.17-7.45-39.6a6.37,6.37,0,0,1,12.7-1c.19,2.44-2.31,40.45-2.31,40.45a15.9,15.9,0,0,1,2.17.28c3.8-19.29,10.36-52.43,10.6-53.23a6.37,6.37,0,1,1,12.2,3.66c-.24.8-12.92,32.12-20.3,50.34a14.09,14.09,0,0,1,2.8,1.46S248.57,82.8,250,81.16a6.37,6.37,0,1,1,9.67,8.28c-1.41,1.64-21.38,18.49-21.38,18.49a14.25,14.25,0,0,1,2,3.31s38.08-19.12,40.39-20a6.37,6.37,0,0,1,4.33,12c-2.32.83-43.84,10.69-43.84,10.69a14.66,14.66,0,0,1,0,6.49s34.95,12.33,36.57,13.09a6.64,6.64,0,0,1,1.45.93,6.37,6.37,0,0,1-6.85,10.6c-1.62-.76-33.83-19-33.83-19-.15.19-.29.39-.45.57a15.3,15.3,0,0,1-1.33,1.34c12.78,15.53,34,41.29,34.44,42A6.38,6.38,0,0,1,269.48,178.75ZM234.9,123.94a10.52,10.52,0,1,0-14.84,1.16A10.55,10.55,0,0,0,234.9,123.94Z"/><path class="cls-5" d="M185.28,43.72a4.24,4.24,0,0,1-5.71-1.84c-.25-.48-8.33-21.15-13.22-33.66a9.77,9.77,0,0,1-2.46.72s1.77,22.18,1.69,23.53a4.16,4.16,0,0,1-1.39,2.93A4.25,4.25,0,0,1,157.11,32c.07-1.34,3.49-23.17,3.49-23.17a9.7,9.7,0,0,1-3-1.11S142.22,25.4,141.39,26.23a4.14,4.14,0,0,1-3,1.26,4.2,4.2,0,0,1-3-1.22l-.17-.18a4.24,4.24,0,0,1,.14-5.82c.81-.83,19.13-15.39,19.13-15.39a10,10,0,0,1-1.18-2.27s-36.89,11.47-38.48,11.82a4.27,4.27,0,0,1-4.06-1.31,4.33,4.33,0,0,1-1-1.94,4.25,4.25,0,0,1,3.25-5c1.59-.34,39.81-5.42,39.81-5.42a10.19,10.19,0,0,1-.09-1.24c-11.21.67-28,1.66-28.82,1.62a4.25,4.25,0,0,1-4-4.46,4.25,4.25,0,0,1,4.46-4c.84,0,17.53,2.8,28.61,4.63,0-.18.07-.36.12-.54,0,0-18.24-5.75-19.5-6.35a4.32,4.32,0,0,1-1.33-1,4.23,4.23,0,0,1-.68-4.66A4.24,4.24,0,0,1,134-17.47a4.23,4.23,0,0,1,3.24.16c1.25.6,17.15,11.21,17.15,11.21A9.53,9.53,0,0,1,156-7.91c.17-.15.34-.28.52-.42,0,0-17.29-23.09-18.06-24.36a4.25,4.25,0,0,1,1.46-5.82,4.25,4.25,0,0,1,5.33.79,4,4,0,0,1,.49.66c.76,1.27,13,27.4,13,27.4a9.68,9.68,0,0,1,3.55-.74s-1.6-25.18-1.51-26.8a4.23,4.23,0,0,1,1.4-2.93,4.18,4.18,0,0,1,3.06-1.08,4.22,4.22,0,0,1,2.93,1.39,4.24,4.24,0,0,1,1.08,3.06c-.08,1.63-5,26.52-5,26.52a10.14,10.14,0,0,1,1.41.38c4.18-12.42,11.37-33.75,11.6-34.26a4.25,4.25,0,0,1,5.61-2.13,4.24,4.24,0,0,1,2.13,5.6c-.23.51-11.31,20.11-17.75,31.51A9.55,9.55,0,0,1,169-7.93s10.78-13.55,11.85-14.51a4.25,4.25,0,0,1,6,.31,4.26,4.26,0,0,1-.31,6c-1.08,1-15.72,10.37-15.72,10.37a9.67,9.67,0,0,1,1,2.36s26.81-9.35,28.41-9.71a4.28,4.28,0,0,1,4.07,1.31,4.26,4.26,0,0,1,1,1.92A4.25,4.25,0,0,1,202-4.82c-1.61.35-29.89,3.29-29.89,3.29a9.64,9.64,0,0,1-.58,4.28s22,11.16,23,11.8a4.43,4.43,0,0,1,.87.74,4.24,4.24,0,0,1,.42,5.12A4.23,4.23,0,0,1,190,21.7c-1-.64-20.72-15.49-20.72-15.49s-.22.23-.34.34a12.1,12.1,0,0,1-1,.77c7.11,11.36,18.89,30.21,19.14,30.69A4.24,4.24,0,0,1,185.28,43.72ZM167.16,4.53a7,7,0,0,0,.51-9.9,7,7,0,0,0-9.9-.52,7,7,0,0,0-.52,9.9A7,7,0,0,0,167.16,4.53Z"/><path class="cls-3" d="M-77.08,28.91a8.34,8.34,0,0,1,3-11.39c.92-.53,24.68-9.59,48.69-20.45A19.19,19.19,0,0,1-27-7.67s-87.74,5.73-90.4,5.73a8.27,8.27,0,0,1-5.88-2.44,8.25,8.25,0,0,1-2.44-5.89,8.27,8.27,0,0,1,2.44-5.89,8.27,8.27,0,0,1,5.89-2.44c2.63,0,90.21,4.46,90.21,4.46a19,19,0,0,1,1.85-5.93S-61.5-48.47-63.22-50A8.3,8.3,0,0,1-66-55.74a8.32,8.32,0,0,1,2.09-6l.34-.36a8.34,8.34,0,0,1,11.42-.33C-50.45-60.93-20-26.52-20-26.52a19,19,0,0,1,4.33-2.54S-42-100.21-42.8-103.29a8.35,8.35,0,0,1,2.15-8.08,8.32,8.32,0,0,1,3.7-2.14,8.26,8.26,0,0,1,6.32.8,8.28,8.28,0,0,1,3.9,5C-25.89-104.59-12-30.18-12-30.18a18,18,0,0,1,2.42-.3c-2.46-21.9-6.12-54.69-6.12-56.33A8.34,8.34,0,0,1-7.4-95.15,8.34,8.34,0,0,1,.93-86.82c0,1.65-3.69,34.66-6.15,56.56.35.06.72.11,1.07.18,0,0,22.88-69.12,23.92-71.64a8.16,8.16,0,0,1,1.81-2.71,8.31,8.31,0,0,1,9.06-1.82,8.31,8.31,0,0,1,4.52,4.5,8.3,8.3,0,0,1,0,6.38C34.14-92.86,1.5-27.83,1.5-27.83A19,19,0,0,1,5.21-25c.31.31.58.64.87,1,0,0,43.49-36.25,45.91-37.88a8.34,8.34,0,0,1,11.55,2.25,8.34,8.34,0,0,1-1,10.54,8.27,8.27,0,0,1-1.24,1C58.88-46.44,8.91-19.7,8.91-19.7a19.2,19.2,0,0,1,1.82,6.88s78.47-5.7,81.66-5.7a8.29,8.29,0,0,1,5.89,2.44,8.27,8.27,0,0,1,2.44,5.89A8.31,8.31,0,0,1,98.28-4.3a8.28,8.28,0,0,1-5.89,2.43C89.2-1.86,10.61-9,10.61-9A19.24,19.24,0,0,1,10-6.18C34.78.75,77.35,12.66,78.36,13.05a8.33,8.33,0,1,1-6,15.53C71.33,28.19,31.77,8.48,8.76-3A18.63,18.63,0,0,1,6.58.52S43,29.05,44.94,31.05A8.32,8.32,0,0,1,33.17,42.82c-2-2-30.67-38.54-30.67-38.54A19.58,19.58,0,0,1-2,6.56S20.61,62.73,21.46,65.83a8.33,8.33,0,1,1-16,4.43c-.86-3.11-11-62.83-11-62.83a19.27,19.27,0,0,1-8.46-.7S-43.86,69.18-45,71.22A8.46,8.46,0,0,1-46.38,73a8.35,8.35,0,0,1-10,1.35,8.35,8.35,0,0,1-3.92-5A8.26,8.26,0,0,1-59.5,63c1.15-2,38.4-60.32,38.4-60.32-.24-.21-.48-.41-.71-.64A17.58,17.58,0,0,1-23.41.18C-45,15.27-64.77,31.4-65.7,31.93A8.33,8.33,0,0,1-77.08,28.91ZM-18-1.72a13.79,13.79,0,0,0,19.46,0,13.78,13.78,0,0,0,0-19.47,13.78,13.78,0,0,0-19.47,0A13.79,13.79,0,0,0-18-1.72Z"/><path class="cls-4" d="M102.37,83.66A6.36,6.36,0,0,1,93.52,82C93.06,81.35,77,52.17,67.31,34.51A14.55,14.55,0,0,1,63.8,36s6.92,32.68,7.08,34.7a6.37,6.37,0,0,1-12.7,1c-.15-2,.69-35.17.69-35.17a14.37,14.37,0,0,1-4.63-1.06S34.73,64.75,33.67,66.15a6.36,6.36,0,0,1-8.92,1.22l-.3-.23a6.39,6.39,0,0,1-.93-8.69C24.58,57.06,49,31.83,49,31.83a14,14,0,0,1-2.19-3.15s-52.68,24.24-55,25.06a6.37,6.37,0,0,1-6.29-1.16,6.47,6.47,0,0,1-1.85-2.69A6.38,6.38,0,0,1-16.06,45a6.37,6.37,0,0,1,3.62-3.27C-10.15,40.93,45.74,26,45.74,26a16,16,0,0,1-.37-1.83C28.83,27.3,4.05,32,2.8,32.13a6.36,6.36,0,1,1-1-12.69c1.25-.1,26.64.76,43.47,1.33,0-.27,0-.55.08-.83,0,0-28.27-5-30.25-5.66a6.25,6.25,0,0,1-2.18-1.22A6.36,6.36,0,0,1,19,2.17c2,.64,27.71,13.34,27.71,13.34a14.73,14.73,0,0,1,2-3c.22-.25.46-.48.69-.72,0,0-30.22-31-31.6-32.75a6.37,6.37,0,0,1,1-8.94,6.38,6.38,0,0,1,8.09.14,6,6,0,0,1,.85.89C29.15-27.13,52.5,9.38,52.5,9.38a14.41,14.41,0,0,1,5.13-1.79S50.37-29.58,50.18-32a6.34,6.34,0,0,1,1.51-4.63A6.34,6.34,0,0,1,56-38.85a6.3,6.3,0,0,1,4.63,1.51A6.32,6.32,0,0,1,62.88-33c.19,2.44-2.31,40.45-2.31,40.45a15.9,15.9,0,0,1,2.17.28C66.55-11.56,73.11-44.7,73.35-45.5a6.37,6.37,0,0,1,7.93-4.27,6.37,6.37,0,0,1,4.26,7.93C85.3-41,72.62-9.72,65.24,8.5A14.09,14.09,0,0,1,68,10S81.46-12.29,82.86-13.93a6.38,6.38,0,0,1,9-.7,6.38,6.38,0,0,1,.69,9C91.12-4,71.15,12.84,71.15,12.84a14.87,14.87,0,0,1,2,3.31S111.24-3,113.55-3.81A6.35,6.35,0,0,1,121.7,0a6.38,6.38,0,0,1-3.83,8.16C115.56,9,74,18.86,74,18.86a14.81,14.81,0,0,1,0,6.49s35,12.33,36.58,13.09a6.57,6.57,0,0,1,1.44.93,6.36,6.36,0,0,1-2,10.82,6.31,6.31,0,0,1-4.86-.22c-1.63-.76-33.84-19-33.84-19-.15.19-.29.39-.45.57a13.93,13.93,0,0,1-1.32,1.34c12.77,15.53,34,41.29,34.43,42A6.37,6.37,0,0,1,102.37,83.66ZM67.79,28.85A10.52,10.52,0,1,0,53,30,10.53,10.53,0,0,0,67.79,28.85Z"/></pattern></defs><title>Asset 2</title><g id="Layer_2" data-name="Layer 2"><g id="Layer_1-2" data-name="Layer 1"><path class="cls-6" d="M921.05,570.71,1081.12,470.2a44.48,44.48,0,0,0,20.75,33L941.79,603.74Z"/><circle class="cls-7" cx="1138.03" cy="463.06" r="59"/><path class="cls-6" d="M287.45,634.73,104.05,589a44.49,44.49,0,0,0,9.43-37.85l183.4,45.73Z"/><path class="cls-8" d="M876.68,531.94a430.71,430.71,0,0,1,78-34.69L1018,609.47a431,431,0,0,1-70.07,48.78c-89,50.17-177.1,62.57-196.76,27.69S787.67,582.11,876.68,531.94Z"/><path class="cls-8" d="M311.38,704.71a431.32,431.32,0,0,1-80.52-28.41L262,551.3A430.57,430.57,0,0,1,346.45,564c99.14,24.71,171.66,76.25,162,115.1S410.51,729.43,311.38,704.71Z"/><path class="cls-9" d="M845,1258.44a431.33,431.33,0,0,1-8.09,85H708.05a431.33,431.33,0,0,1-8.09-85c0-102.17,32.46-185,72.5-185S845,1156.27,845,1258.44Z"/><path class="cls-9" d="M542,1262.44a431.33,431.33,0,0,1-8.09,85H405.05a431.33,431.33,0,0,1-8.09-85c0-102.17,32.46-185,72.5-185S542,1160.27,542,1262.44Z"/><path class="cls-8" d="M916,941.94c0,94.32-13.53,183.07-37.35,260.5H334.31C310.49,1125,297,1036.26,297,941.94c0-301.82,138.57-546.5,309.5-546.5S916,640.12,916,941.94Z"/><path class="cls-6" d="M486,1347.44v189a44.46,44.46,0,0,0-39,0v-189Z"/><path class="cls-6" d="M792,1343.44v193a44.46,44.46,0,0,0-39,0v-193Z"/><circle class="cls-6" cx="606.96" cy="285.44" r="250"/><circle class="cls-7" cx="59.46" cy="552.94" r="59"/><path class="cls-10" d="M873,340.94c0,116.53-119.31,211-266.5,211S340,457.47,340,340.94Z"/><path class="cls-8" d="M606.46.44C459.28.44,340,94.91,340,211.44H873C873,94.91,753.64.44,606.46.44ZM551,171.94c0-24.38,25-44.14,55.75-44.14s55.75,19.76,55.75,44.14Z"/><path class="cls-11" d="M732,388.94v.5a125,125,0,1,1-250,0q0-5.67.5-11.2v10.7Z"/><circle class="cls-8" cx="481.96" cy="274.44" r="15.56"/><circle class="cls-8" cx="725.96" cy="274.44" r="15.56"/><path class="cls-12" d="M370.46,245.14h223a0,0,0,0,1,0,0v56.54a21.26,21.26,0,0,1-21.26,21.26H391.72a21.26,21.26,0,0,1-21.26-21.26V245.14A0,0,0,0,1,370.46,245.14Z"/><rect class="cls-13" x="370.46" y="224.94" width="223" height="20.2"/><path class="cls-12" d="M620.46,245.14h223a0,0,0,0,1,0,0v56.54a21.26,21.26,0,0,1-21.26,21.26H641.72a21.26,21.26,0,0,1-21.26-21.26V245.14A0,0,0,0,1,620.46,245.14Z"/><rect class="cls-13" x="620.46" y="224.94" width="223" height="20.2"/><line class="cls-14" x1="593.46" y1="274.94" x2="620.46" y2="274.94"/><path class="cls-15" d="M584.47,340.94c.14-19.92,10-36,22.18-36s22,16.08,22.18,36"/><path class="cls-16" d="M792,1536.45v85H753v-85a44.46,44.46,0,0,1,39,0Z"/><path class="cls-17" d="M845,1654.93a194.56,194.56,0,0,1-8.09,56.51H708.06a194.56,194.56,0,0,1-8.09-56.51c0-56.46,22.43-104,53-118.47v85h39v-85C822.53,1550.88,845,1598.46,845,1654.93Z"/><path class="cls-16" d="M486,1536.45v89H447v-89a44.46,44.46,0,0,1,39,0Z"/><path class="cls-17" d="M539,1654.93a194.56,194.56,0,0,1-8.09,56.51H402.06a194.56,194.56,0,0,1-8.09-56.51c0-56.46,22.43-104,53-118.47v89h39v-89C516.53,1550.88,539,1598.46,539,1654.93Z"/><rect class="cls-16" x="401.96" y="1711.44" width="129" height="15"/><rect class="cls-16" x="707.96" y="1711.44" width="129" height="15"/><path class="cls-18" d="M373.66,763,343,835.87h-7.42L366.24,763Z"/><path class="cls-18" d="M424,763l-30.68,72.83h-7.43L416.61,763Z"/><path class="cls-18" d="M478.16,770.29a51.68,51.68,0,0,0-10.55-1.3q-10.51,0-10.52,11v7.88h19.69v6.48H457.09v31.9h-7.91v-31.9H434.73v-6.48h14.45v-7.43q0-17.94,18.69-17.94a55.72,55.72,0,0,1,10.29,1.07Z"/><path class="cls-18" d="M517.53,826.25l-.18-6a24.25,24.25,0,0,1-7.45,5.23,19.92,19.92,0,0,1-7.94,1.61,19.56,19.56,0,0,1-6.57-1,12.38,12.38,0,0,1-4.5-2.71,10.32,10.32,0,0,1-2.59-4.05,14.74,14.74,0,0,1-.83-5,12.56,12.56,0,0,1,5-10.58q5-3.82,14.87-3.83h9.31v-3.93a8.34,8.34,0,0,0-2.55-6.38q-2.55-2.38-7.78-2.39a33.11,33.11,0,0,0-7.5.85,52.12,52.12,0,0,0-7.62,2.42v-7c1-.36,2.08-.71,3.28-1s2.49-.65,3.83-.92,2.74-.48,4.2-.64a38.31,38.31,0,0,1,4.43-.25,28.06,28.06,0,0,1,7.34.89,14.88,14.88,0,0,1,5.52,2.73,12,12,0,0,1,3.47,4.61,16.19,16.19,0,0,1,1.21,6.53v31Zm-.85-20.45h-9.89a18.82,18.82,0,0,0-5,.59,9.43,9.43,0,0,0-3.44,1.65,6.59,6.59,0,0,0-2,2.57,8.49,8.49,0,0,0-.65,3.38,7.58,7.58,0,0,0,.4,2.48,5.52,5.52,0,0,0,1.3,2.11,6.3,6.3,0,0,0,2.33,1.45,9.86,9.86,0,0,0,3.48.54,14.82,14.82,0,0,0,6.16-1.64,30,30,0,0,0,7.31-5.16Z"/><path class="cls-18" d="M571.08,826.25V794a29.26,29.26,0,0,0-.16-3.44,8,8,0,0,0-.49-2.13,2.27,2.27,0,0,0-.85-1.09,2.4,2.4,0,0,0-1.28-.31,2.79,2.79,0,0,0-1.65.53A7.41,7.41,0,0,0,565,789.3a25.69,25.69,0,0,0-1.93,3.2c-.7,1.32-1.53,3-2.48,4.89v28.86H553.5V794.84c0-1.64-.06-3-.16-4a9.34,9.34,0,0,0-.49-2.37,2.32,2.32,0,0,0-.87-1.16,2.53,2.53,0,0,0-1.3-.31,2.86,2.86,0,0,0-1.52.44,6.52,6.52,0,0,0-1.59,1.61,26.46,26.46,0,0,0-2,3.18c-.71,1.34-1.56,3.06-2.55,5.14v28.86h-7.15V781.33h6l.35,8.55a41.56,41.56,0,0,1,2.26-4.34,14.24,14.24,0,0,1,2.26-2.89,7.87,7.87,0,0,1,2.48-1.61,8.08,8.08,0,0,1,2.93-.51,6.62,6.62,0,0,1,5.51,2.37q1.88,2.37,1.88,7.34,1.07-2.32,2.1-4.14a14.82,14.82,0,0,1,2.21-3,8.41,8.41,0,0,1,2.62-1.88,8,8,0,0,1,3.31-.65q8.46,0,8.45,13v32.7Z"/><path class="cls-18" d="M604.72,787.78H591.43v-6.45h21.16v38.43H626v6.49H590v-6.49h14.76Zm2.73-25.28a6.2,6.2,0,0,1,2.41.47,5.71,5.71,0,0,1,1.95,1.32,6.59,6.59,0,0,1,1.3,2,6.26,6.26,0,0,1,0,4.76,6.43,6.43,0,0,1-1.3,2,5.71,5.71,0,0,1-1.95,1.32,6.44,6.44,0,0,1-4.83,0,5.76,5.76,0,0,1-1.94-1.32,6.09,6.09,0,0,1-1.3-2,6.26,6.26,0,0,1,0-4.76,6.22,6.22,0,0,1,1.3-2A5.76,5.76,0,0,1,605,763,6.25,6.25,0,0,1,607.45,762.5Z"/><path class="cls-18" d="M655.09,769.43H641.8V763H663v56.72h13.38v6.49h-36v-6.49h14.76Z"/><path class="cls-18" d="M730.11,781.33l-15.3,40.18a78.14,78.14,0,0,1-4.9,10.55,31.15,31.15,0,0,1-5.52,7.27,19.45,19.45,0,0,1-6.58,4.19,22.77,22.77,0,0,1-8,1.34c-.77,0-1.47,0-2.1-.05s-1.31-.07-2.06-.13v-7.07c.66.09,1.37.17,2.15.25s1.6.11,2.46.11a12.33,12.33,0,0,0,4-.63,10.77,10.77,0,0,0,3.52-2,18.2,18.2,0,0,0,3.17-3.65,34.79,34.79,0,0,0,2.95-5.41L686,781.33h8.85L706.18,811l2.28,7,2.59-7.16,10.52-29.53Z"/><path class="cls-18" d="M781.55,826.25h-7.78l-1.16-36.46-.49-14-2.73,8.14-8.64,23.26h-5.5L747,784.82l-2.73-9-.18,14.63-1,35.83h-7.51l2.86-58.47h9.44l7.87,22,2.55,7.43,2.46-7.43,8.28-22h9.71Z"/><path class="cls-18" d="M819.76,826.25l-.18-6a24.25,24.25,0,0,1-7.45,5.23,20,20,0,0,1-7.94,1.61,19.62,19.62,0,0,1-6.58-1,12.34,12.34,0,0,1-4.49-2.71,10.34,10.34,0,0,1-2.6-4.05,15,15,0,0,1-.82-5,12.54,12.54,0,0,1,5-10.58q5-3.82,14.87-3.83h9.31v-3.93a8.34,8.34,0,0,0-2.55-6.38q-2.55-2.38-7.79-2.39a33.09,33.09,0,0,0-7.49.85,52.62,52.62,0,0,0-7.63,2.42v-7c1-.36,2.08-.71,3.29-1s2.48-.65,3.83-.92,2.74-.48,4.2-.64a38.31,38.31,0,0,1,4.43-.25,28.12,28.12,0,0,1,7.34.89,15,15,0,0,1,5.52,2.73,12.08,12.08,0,0,1,3.47,4.61,16.36,16.36,0,0,1,1.21,6.53v31Zm-.85-20.45H809a18.82,18.82,0,0,0-5,.59,9.43,9.43,0,0,0-3.44,1.65,6.59,6.59,0,0,0-2,2.57,8.32,8.32,0,0,0-.65,3.38,7.58,7.58,0,0,0,.4,2.48,5.52,5.52,0,0,0,1.3,2.11A6.26,6.26,0,0,0,802,820a10,10,0,0,0,3.49.54,14.74,14.74,0,0,0,6.15-1.64,30.08,30.08,0,0,0,7.32-5.16Z"/><path class="cls-18" d="M841.28,781.33h6.93l.31,7.25a32.61,32.61,0,0,1,3.8-3.87,21.23,21.23,0,0,1,3.61-2.48,13.05,13.05,0,0,1,3.6-1.32,18.91,18.91,0,0,1,3.8-.38q6.93,0,10.49,4.09T877.38,797v29.3h-7.79V797.57c0-3.52-.65-6.12-2-7.8a7,7,0,0,0-5.86-2.53,9.43,9.43,0,0,0-2.79.42,10.35,10.35,0,0,0-2.84,1.48,23.35,23.35,0,0,0-3.2,2.84c-1.15,1.19-2.44,2.69-3.87,4.48v29.79h-7.78Z"/></g></g></svg>