<svg xmlns="http://www.w3.org/2000/svg" viewBox="0 0 1095.61 1731.73"><defs><style>.cls-1,.cls-2{fill:#c69c6d;}.cls-1,.cls-11,.cls-2,.cls-3,.cls-4,.cls-5,.cls-6,.cls-7,.cls-8,.cls-9{stroke:#000;stroke-miterlimit:10;}.cls-1,.cls-4{stroke-width:0.92px;}.cls-2{stroke-width:0.93px;}.cls-3{fill:aqua;}.cls-11,.cls-3{stroke-width:0.88px;}.cls-4{fill:#f0f;}.cls-10,.cls-11,.cls-5{fill:#42210b;}.cls-5{stroke-width:0.1px;}.cls-6,.cls-8{fill:#fff;}.cls-6{stroke-width:0.46px;}.cls-7{fill:none;stroke-width:3px;}.cls-8,.cls-9{stroke-width:0.75px;}.cls-9{fill:#ed1e79;}</style></defs><title>Asset 7</title><g id="Layer_2" data-name="Layer 2"><g id="Layer_1-2" data-name="Layer 1"><path class="cls-1" d="M911.47,739.73l113,151.52a44.46,44.46,0,0,0-31.26,23.32l-113-151.52Z"/><circle class="cls-2" cx="1036.14" cy="947.4" r="59"/><path class="cls-1" d="M219.43,763.8l-110,153.7a44.47,44.47,0,0,0-31.72-22.69l110-153.71Z"/><path class="cls-3" d="M946.57,692.4a431.77,431.77,0,0,1,40.82,75l-106.8,72a432.39,432.39,0,0,1-54.24-65.95C769.22,688.78,749.81,602,783,579.57S889.43,607.7,946.57,692.4Z"/><path class="cls-3" d="M293.3,767.3a430.41,430.41,0,0,1-56.05,64.41l-104.75-75a431.3,431.3,0,0,1,42.89-73.83C234.85,599.83,309.46,551.36,342,574.67S352.76,684.22,293.3,767.3Z"/><path class="cls-4" d="M786.11,1263.36a431.33,431.33,0,0,1-8.09,85H649.2a431.33,431.33,0,0,1-8.09-85c0-102.17,32.46-185,72.5-185S786.11,1161.19,786.11,1263.36Z"/><path class="cls-4" d="M483.11,1267.36a431.33,431.33,0,0,1-8.09,85H346.2a431.33,431.33,0,0,1-8.09-85c0-102.17,32.46-185,72.5-185S483.11,1165.19,483.11,1267.36Z"/><path class="cls-3" d="M857.11,946.86c0,94.32-13.53,183.07-37.35,260.5H275.46c-23.82-77.43-37.35-166.18-37.35-260.5,0-301.82,138.57-546.5,309.5-546.5S857.11,645,857.11,946.86Z"/><path class="cls-1" d="M427.11,1352.36v189a44.46,44.46,0,0,0-39,0v-189Z"/><path class="cls-1" d="M733.11,1348.36v193a44.46,44.46,0,0,0-39,0v-193Z"/><circle class="cls-1" cx="548.11" cy="290.36" r="250"/><circle class="cls-2" cx="59.48" cy="945.69" r="59"/><path class="cls-5" d="M596.61,287.86c0-13.12,13.43-23.76,30-23.76s30,10.64,30,23.76Z"/><path class="cls-5" d="M435.61,287.86c0-13.12,13.43-23.76,30-23.76s30,10.64,30,23.76Z"/><path class="cls-6" d="M673.11,393.86v.5a125,125,0,0,1-250,0q0-5.67.5-11.2v10.7Z"/><path class="cls-7" d="M525.62,345.86c.13-19.92,10-36,22.18-36s22,16.08,22.17,36"/><path class="cls-8" d="M733.11,1541.37v85h-39v-85a44.46,44.46,0,0,1,39,0Z"/><path class="cls-9" d="M786.12,1659.85a194.56,194.56,0,0,1-8.09,56.51H649.21a194.56,194.56,0,0,1-8.09-56.51c0-56.46,22.43-104,53-118.47v85h39v-85C763.68,1555.8,786.12,1603.38,786.12,1659.85Z"/><path class="cls-8" d="M427.11,1541.37v89h-39v-89a44.46,44.46,0,0,1,39,0Z"/><path class="cls-9" d="M480.12,1659.85a194.56,194.56,0,0,1-8.09,56.51H343.21a194.56,194.56,0,0,1-8.09-56.51c0-56.46,22.43-104,53-118.47v89h39v-89C457.68,1555.8,480.12,1603.38,480.12,1659.85Z"/><rect class="cls-8" x="343.11" y="1716.36" width="129" height="15"/><rect class="cls-8" x="649.11" y="1716.36" width="129" height="15"/><path class="cls-10" d="M522.08,18.71c-45,5.92-115,11.9-152.45,40.78C330,90,316.26,165.59,297.22,209.56c-19.91,46-28.42,81.18-32.91,131.21-4.26,47.55-17.48,124.75-84.39,114.05,32.76,50.5,148.14,45.85,203.92,37.77-2.84-33.1-26.49-63.08-34.22-95.88-7.78-33-8.18-68.51-9.76-102.35-3.83-82,32.5-145.31,92.24-200,44-40.26,133.1-58.84,178.63-22.57,31.64,25.21,53.45,61.42,85.91,85.12,41.21,30.08,57.58,27.45,69.64,82.68,19,86.72-17.29,154.6-48.63,231.63,50.47,27.93,212.41,40.67,217.61-47.76-33.09-1.05-54.23,7.37-72.28-19.36-14.71-21.79-5.51-57.43-7.59-82-4.51-53.05-29.49-124.66-59.53-169.67-35-52.39-91-100.88-149.46-126.09-33.35-14.4-123.91-44-151-7.66"/><path d="M522.08,17.4c-42.58,5.57-87,9-126.94,26.08-18.08,7.73-33.36,18.69-44.94,34.69-12,16.61-20.15,35.83-27.26,55-7.31,19.65-13.32,39.75-20.47,59.46-8.22,22.68-18.48,44.4-25.23,67.65-6.95,23.91-11.05,48.48-13.55,73.23-1.77,17.55-3.45,35-7.54,52.24-4.27,18-10.77,36.66-23.32,50.65-13.63,15.2-32.71,20.23-52.56,17.21-1-.16-2.19.87-1.49,1.93,14.81,22.39,42.39,32.21,67.53,37.41,30.47,6.32,62.1,7,93.07,5.32,15-.8,29.95-2.22,44.81-4.36a1.3,1.3,0,0,0,1-1.27c-1.79-18.62-9.42-35.73-17.21-52.52-8.68-18.71-16.24-36.93-19.84-57.35-4-22.41-5.09-45.19-6.05-67.89-.82-19.29-1.89-38.47.22-57.72,3.82-34.84,16.27-68.05,35.2-97.46a301,301,0,0,1,33.37-42.43c11.53-12.34,23.67-24.64,37.78-34,27.06-18,60.18-28.35,92.64-29.39,15.36-.5,30.94,1.19,45.47,6.37,16.48,5.87,29.35,17,41.51,29.3,13.68,13.8,25.94,28.92,39.32,43a238.12,238.12,0,0,0,40.68,34.15c10.13,6.77,21,12.77,30.34,20.61,8.9,7.46,15.1,16.9,19.27,27.7,14,36.21,15.29,77.78,8.33,115.62-7.16,39-22.73,75.69-38,112-4,9.42-7.92,18.85-11.78,28.31a1.32,1.32,0,0,0,.61,1.49c12.69,6.95,26.94,11.08,41,14.19a289.2,289.2,0,0,0,54.68,6.66c33.9.93,73.78-2.74,101.13-25,13.79-11.22,21.62-27.07,22.77-44.76a1.33,1.33,0,0,0-1.31-1.31c-11.29-.32-22.55.65-33.83.44-10-.19-19.92-2-27.89-8.53-20.91-17.11-18.17-45.46-16.95-69.62,1.19-23.6-2.34-46.54-7.91-69.45a442.63,442.63,0,0,0-25.84-75.43c-40-89.69-120.56-160.41-214.73-188.31C587,5,564.8.06,542.63,0c-17.51,0-37.06,3.32-48.36,18.05-1,1.34,1.26,2.65,2.28,1.33,10.9-14.22,30.5-16.93,47.25-16.74,20.36.23,40.65,4.59,60.16,10.16a332.32,332.32,0,0,1,119.78,63c41.55,34,74.93,76.05,96.83,125.15a437.56,437.56,0,0,1,25.94,76.33,324.22,324.22,0,0,1,6.71,36.59c1.34,11.26,1.17,22.32.58,33.62-1.27,24.47-2.67,52.48,18.79,69.22,17.34,13.53,42.42,7.57,62.67,8.13l-1.32-1.32a59.5,59.5,0,0,1-23.52,44.1c-14.57,11.16-32.82,16.81-50.68,19.94-38.22,6.7-79.89,3.55-117-7.62a134.66,134.66,0,0,1-21.29-8.15c-.54-.27-1.69-.57-2-1-.49-.68.57-1.74,1.17-3.21q2.5-6.09,5-12.17c3.24-7.74,6.51-15.47,9.75-23.21,12.6-30.15,24.84-60.71,31.72-92.76s7.66-65.12,1-97.34c-4.22-20.48-10.38-41.66-26.72-55.82-6.92-6-14.8-10.8-22.49-15.74-11.85-7.62-23.61-15.45-34.15-24.84-24-21.41-42.52-48.21-66.75-69.41-18.94-16.58-41.67-24.19-66.72-25-25.82-.88-52,4.7-75.72,14.69A164.45,164.45,0,0,0,441.52,85c-11.08,8.22-20.95,18.18-30.44,28.16-19.55,20.58-36.8,43.56-49.44,69a223.76,223.76,0,0,0-22.45,79.46c-1.42,15.89-.67,31.69,0,47.6.76,18.47,1.53,37,3.65,55.35,1.92,16.61,4.72,33.24,10.63,48.94,5.8,15.39,13.62,29.9,19.86,45.11a142.93,142.93,0,0,1,7.36,22.44c.41,1.83,2.51,9.71,1.46,10.46-1.5,1.05-5.77.77-7.65,1q-16,2-32.15,2.9c-24.47,1.44-49.16,1.33-73.53-1.55-22.82-2.7-46.68-7.71-66.52-19.83a66.76,66.76,0,0,1-21.25-19.88l-1.48,1.93c16.27,2.48,32.81.3,46.26-9.74,12.31-9.2,20.29-22.93,25.81-37,14.3-36.43,13-76.29,20-114.26a377.72,377.72,0,0,1,21.23-71.84c8-19.94,15.58-39.75,22.39-60.15,7-21.12,14.2-42.37,24.33-62.25,9.1-17.85,20.77-34.4,37.92-45.28,21-13.35,46-19.88,70.23-24.7C472.35,26,497.26,23.28,522.08,20c1.65-.22,1.67-2.85,0-2.63Z"/><path class="cls-11" d="M394.11,109.36l-5,22-.36-1.54c-8,89.7,113.85,121.77,144.45,39.68-9.82-2.26-19.16-5.94-30-4.23,28.6,3.27,52.34,28.13,80.7,14-5.41-12.42-10.67-23.61-25.35-30.29,26.63,13.95,62.74,61.76,92.59,24.07-8.39-9-22.17-18.77-35-25,42.59,7.47,90.6,23.56,81.95-33.46C691.29,70,651.56,38.93,611.94,32.06c-53.3-9.24-211.12,10.86-218.75,80"/><path class="cls-10" d="M325.22,140.24c-25.82-4.17-46.22-26.38-35.51-53-1.81,8-2.94,31-6.88,36.58-5,7.11-18.46-1.15-27,5.21,9.09.45,22.54,3.74,25.45,13.64-9.91,5-12.17,14.07-10.62,24.29,6.57-16.4,33.36-21.29,48.91-21.48.37-3.74,2.53-7.06,2.87-10.74"/><path d="M325.62,138.8c-24.65-4.31-44.27-25.54-34.47-51.13l-2.89-.79c-2.19,10.36-2.06,21.15-4.82,31.41-.63,2.36-1.32,5-3.62,6.27-2.64,1.47-6.32.87-9.17.68-5.49-.38-10.77-.63-15.54,2.53a1.51,1.51,0,0,0,.76,2.79c8.83.54,20.76,3.06,24,12.54l.69-1.69c-10.1,5.42-12.77,15.16-11.3,26a1.51,1.51,0,0,0,2.74.36c7.27-16.83,31.46-20.44,47.61-20.74a1.5,1.5,0,0,0,1.45-1.1c.6-3.69,2.28-7,2.87-10.74.3-1.89-2.59-2.7-2.89-.8-.59,3.7-2.27,7-2.87,10.74l1.44-1.1c-17.17.32-42.48,4.36-50.2,22.22l2.74.36c-1.28-9.46,1.13-17.87,9.93-22.59a1.53,1.53,0,0,0,.69-1.7c-3.75-10.94-16.57-14.11-26.9-14.74l.76,2.8c8.76-5.82,24.25,3.64,28.9-8.65,4.05-10.71,3.28-22.93,5.62-34a1.5,1.5,0,0,0-2.89-.79c-10.35,27,10.37,50.24,36.56,54.81,1.89.33,2.7-2.56.8-2.89Z"/><path class="cls-10" d="M764.38,108.78c25.88.54,33.34-23.93,44.11-42.1,6.34,10.74,3.44,25.62,3.91,37.81,9.72-1.71,20.2-9,27.8-15.89-2.76,8.88-10.26,20.57-18.15,25.75,6.55,2.18,19.26-1.8,25.24,2,7.45,4.67,5.63,13.7,7.34,21.12-8.7-1.22-15.16-8.13-24.24-9.57-8.77-1.38-17.58-1.64-25.64-3.23-17.51-3.47-34.87-1.13-44.48-18.59"/><path d="M764.38,110.28c25.74.08,34.37-24,45.41-42.84H807.2c6.17,11.26,3.36,24.79,3.7,37.05a1.51,1.51,0,0,0,1.89,1.44c10.9-2.21,20.31-9,28.47-16.27l-2.51-1.46c-3.13,9.48-9.17,19.1-17.46,24.85a1.52,1.52,0,0,0,.36,2.74c7.26,2,14.91-1.07,22.14.75,9.42,2.37,7.89,13.88,9.4,21.29L855,136c-8-1.43-14.24-7.08-22-9.09-9.64-2.5-20.11-2.38-29.92-4.1-15.62-2.73-32.54-2-41.51-17.52A1.5,1.5,0,0,0,759,106.8c8.49,14.67,23.37,16,38.69,18.18,10.19,1.42,20.46,2.58,30.64,4.09,9.43,1.4,16.62,8.16,25.92,9.81a1.53,1.53,0,0,0,1.85-1.85c-1.54-7.55-.29-17.46-8-22s-17.41.15-25.6-2.11l.36,2.74c9-6.23,15.44-16.36,18.84-26.64.5-1.51-1.46-2.39-2.51-1.46-7.78,6.93-16.75,13.39-27.14,15.5l1.9,1.45c-.35-12.89,2.38-26.72-4.11-38.56a1.51,1.51,0,0,0-2.59,0c-10.39,17.73-18.44,41.43-42.82,41.35a1.5,1.5,0,0,0,0,3Z"/></g></g></svg>