<svg xmlns="http://www.w3.org/2000/svg" viewBox="0 0 870.73 1678.28"><defs><style>.cls-1,.cls-7{fill:#f2c69c;}.cls-1,.cls-10,.cls-11,.cls-12,.cls-13,.cls-2,.cls-3,.cls-4,.cls-5,.cls-6,.cls-7,.cls-8,.cls-9{stroke:#000;stroke-miterlimit:10;}.cls-1,.cls-3{stroke-width:0.92px;}.cls-2,.cls-4{fill:#e3d3f4;}.cls-2{stroke-width:0.88px;}.cls-3{fill:#0071bc;}.cls-4{stroke-width:0.63px;}.cls-5,.cls-8{fill:#fff;}.cls-5,.cls-6{stroke-width:0.75px;}.cls-6{fill:#f0f;}.cls-7{stroke-width:0.83px;}.cls-8{stroke-width:0.41px;}.cls-11,.cls-12,.cls-9{fill:none;}.cls-9{stroke-width:1.57px;}.cls-10{stroke-width:1.73px;}.cls-11{stroke-width:7.14px;}.cls-12{stroke-width:2.68px;}.cls-13{fill:#009245;stroke-width:0.78px;}.cls-14{fill:#cca946;}</style></defs><title>Asset 8</title><g id="Layer_2" data-name="Layer 2"><g id="Layer_1-2" data-name="Layer 1"><path class="cls-1" d="M686.7,771.78l113,151.52a44.41,44.41,0,0,0-31.26,23.32l-113-151.52Z" transform="translate(-0.11)"/><circle class="cls-1" cx="811.27" cy="979.45" r="59"/><path class="cls-1" d="M238.36,824.42l-45.72,183.39a44.46,44.46,0,0,0-37.85-9.42L200.52,815Z" transform="translate(-0.11)"/><path class="cls-2" d="M721.79,724.45a431.19,431.19,0,0,1,40.83,75l-106.8,72a431.8,431.8,0,0,1-54.24-66C544.45,720.83,525,634,558.24,611.62S664.66,639.75,721.79,724.45Z" transform="translate(-0.11)"/><path class="cls-2" d="M308.34,800.49A431.32,431.32,0,0,1,279.92,881l-125-31.17a431.49,431.49,0,0,1,12.71-84.43c24.72-99.13,76.25-171.65,115.11-162S333.05,701.36,308.34,800.49Z" transform="translate(-0.11)"/><path class="cls-3" d="M613.07,1209.9a431.33,431.33,0,0,1-8.09,85H476.16a431.33,431.33,0,0,1-8.09-85c0-102.17,32.46-185,72.5-185S613.07,1107.73,613.07,1209.9Z" transform="translate(-0.11)"/><path class="cls-3" d="M401.57,1201.4a431.33,431.33,0,0,1-8.09,85H264.66a431.33,431.33,0,0,1-8.09-85c0-102.17,32.46-185,72.5-185S401.57,1099.23,401.57,1201.4Z" transform="translate(-0.11)"/><path class="cls-4" d="M633.32,935.3c0,74.62-8.75,144.84-24.15,206.1H257.22c-15.41-61.26-24.15-131.48-24.15-206.1,0-238.8,89.6-432.4,200.12-432.4S633.32,696.5,633.32,935.3Z" transform="translate(-0.11)"/><path class="cls-1" d="M345.57,1286.4v189a44.46,44.46,0,0,0-39,0v-189Z" transform="translate(-0.11)"/><path class="cls-1" d="M560.07,1294.9v193a44.46,44.46,0,0,0-39,0v-193Z" transform="translate(-0.11)"/><circle class="cls-1" cx="156.46" cy="1052.4" r="59"/><path class="cls-5" d="M560.07,1487.91v85h-39v-85a44.46,44.46,0,0,1,39,0Z" transform="translate(-0.11)"/><path class="cls-6" d="M613.08,1606.39A194.56,194.56,0,0,1,605,1662.9H476.17a194.56,194.56,0,0,1-8.09-56.51c0-56.46,22.43-104,53-118.47v85h39v-85C590.64,1502.34,613.08,1549.92,613.08,1606.39Z" transform="translate(-0.11)"/><path class="cls-5" d="M345.57,1475.41v89h-39v-89a44.46,44.46,0,0,1,39,0Z" transform="translate(-0.11)"/><path class="cls-6" d="M398.58,1593.89a194.56,194.56,0,0,1-8.09,56.51H261.67a194.56,194.56,0,0,1-8.09-56.51c0-56.46,22.43-104,53-118.47v89h39v-89C376.14,1489.84,398.58,1537.42,398.58,1593.89Z" transform="translate(-0.11)"/><rect class="cls-5" x="261.46" y="1650.4" width="129" height="15"/><rect class="cls-5" x="475.96" y="1662.9" width="129" height="15"/><ellipse class="cls-7" cx="422.46" cy="262.4" rx="199.25" ry="250"/><path class="cls-8" d="M522.19,365.9v.5c0,69-44.6,125-99.62,125s-99.63-56-99.63-125c0-3.78.14-7.51.4-11.2v10.7Z" transform="translate(-0.11)"/><path class="cls-9" d="M234,222.1H411.7a0,0,0,0,1,0,0v58.82a19,19,0,0,1-19,19H253a19,19,0,0,1-19-19V222.1A0,0,0,0,1,234,222.1Z"/><rect class="cls-10" x="233.97" y="201.9" width="177.73" height="20.2"/><path class="cls-9" d="M433.22,222.1H611a0,0,0,0,1,0,0v58.82a19,19,0,0,1-19,19H452.2a19,19,0,0,1-19-19V222.1A0,0,0,0,1,433.22,222.1Z"/><rect class="cls-10" x="433.22" y="201.9" width="177.73" height="20.2"/><line class="cls-11" x1="411.7" y1="251.9" x2="433.22" y2="251.9"/><path class="cls-12" d="M404.64,317.9c.11-19.91,8-36,17.68-36S439.89,298,440,317.9" transform="translate(-0.11)"/><path class="cls-13" d="M299.43,259.9a23.91,23.91,0,0,1,47.82,0Z" transform="translate(-0.11)"/><path class="cls-13" d="M493.1,259.9a23.91,23.91,0,0,1,47.82,0Z" transform="translate(-0.11)"/><path class="cls-14" d="M380,22.24c-41.8,85.34-164.08,149-152.77,255.91,6,56.64,16.14,105,40.72,156.52,22.54,47.24,73.7,88,62.31,146.11-8.45,43-65.12,48.72-102.27,51.34-77,5.44-161.33-15.32-226.36-57.23,63.41-3.16,106.08,15,145.26-47.52,34.86-55.67,24.48-121.66,27.73-184.61,5.45-105.59,5.56-254.2,107.62-315.1C323.81,2.82,361.44,16.05,399.31,8.91c47.84-9,91.25-16.4,131.25,19.59,42.05,37.84,67.61,87.88,80.79,142,8.72,35.86,23.76,69.84,23.9,107,.16,42.36-12,98.44-3,138.72,6.57,29.19,32.87,55.27,58.71,68.14,31.86,15.89,73.83,9.95,101.7,23.86-29.14,51.71-91.22,83.9-147.08,96.89-23.3,5.42-73,18.08-96.32,6.15-19.33-9.89-26.29-46.71-28-68.64-2.09-27.36,14.13-44.22,25.2-67.32C572.07,422,595.43,373,598.94,312.5c3.88-67-29.54-115.28-70.26-165.72-24.18-29.95-51.26-63.4-86.32-81.23C422.56,55.48,377.15,48.2,380,19.47" transform="translate(-0.11)"/><path d="M378.65,21.49c-25.68,52-72.83,89.63-108.39,134.42-17,21.39-32.2,44.86-39.93,71.3-9.19,31.45-4,63.75,1.33,95.45,6.51,38.41,17.49,75.84,34.16,111.11,13.66,28.91,35.55,52.8,50.54,80.93,13.61,25.54,23.23,63.91,1.33,87.94-18.38,20.16-49.79,24.4-75.47,26.83-74.05,7-149.86-6.74-215.74-41.74Q14.12,581.16,2.33,573.6l-.75,2.79c21.64-1,43.26.82,64.9,0,18.14-.67,36.1-4.22,51.27-14.7,19.76-13.64,33.73-35.69,42.56-57.61,10.62-26.37,13.69-55,14.58-83.16s.12-56.45,1.51-84.66c1.06-21.55,1.95-43.11,3.4-64.64,3.08-45.64,8.31-91.87,23-135.42C216.9,94.3,241.09,55.46,279,31.36a112.33,112.33,0,0,1,41.83-16.22c14.07-2.37,28.37-2.18,42.58-2.22,13,0,25.84-.61,38.65-3,13.7-2.57,27.45-5.07,41.36-6.24,26.79-2.25,53.21,1.77,75.59,17.53,23.2,16.34,42.14,40.53,56.64,64.65s25,50.2,32.2,77.23c4,14.88,8,29.68,12.4,44.43s8.64,29.32,11.17,44.39c4.8,28.67.71,57.81-1.77,86.52-2.28,26.32-5.07,54.52,1.68,80.44,6.54,25.1,25.8,46.12,47.08,60,23.39,15.3,50.08,17.49,77,21.2,12.44,1.72,25.06,3.91,36.45,9.43l-.54-2c-32.71,57.32-97.31,85.12-158.8,99.15-15.08,3.43-30.33,6.52-45.77,7.68-12.81,1-28.88,1.62-39.89-6.22-11.38-8.1-16.36-23.7-19.56-36.62-3.58-14.48-6.63-31-3.44-45.79,3.59-16.61,14-30.51,21.75-45.34,8.66-16.67,16.43-34,23.92-51.19,14.69-33.81,26.32-68.94,30-105.78a185.31,185.31,0,0,0-16.77-98.65C568.29,194,547,167.05,525.74,140.77c-21.92-27.07-45.07-54.83-75.53-72.64-10.47-6.12-21.78-9.77-33-14.06C406.08,49.85,393,44.84,385.71,35a22.35,22.35,0,0,1-4.26-15.48c.15-1.93-2.85-1.92-3,0-1.92,24.79,28.38,34.06,46.81,40.77a145.89,145.89,0,0,1,38.3,20.38c15.32,11.47,28.73,25.31,41.27,39.71,23.69,27.22,47.24,55.87,65.46,87.11C588.4,238.52,599,272.91,597.6,309.11c-1.56,39.79-13.35,78.18-28.88,114.57-7.74,18.12-16,36.15-24.9,53.74-7.35,14.55-17.44,28-21.87,43.85-4,14.34-1.91,29.52,1,43.88,2.62,13.18,6.6,27.15,14.87,38,7.76,10.17,19.14,13.55,31.51,14.37,15.17,1,30.55-1.27,45.43-4.07,61.48-11.58,125.66-34.21,166-84.81A154.44,154.44,0,0,0,794,509a1.51,1.51,0,0,0-.54-2.05c-23.69-11.49-51.37-10.11-76.65-15.53a115.36,115.36,0,0,1-69.16-45.74A86.57,86.57,0,0,1,632.25,408c-2.08-13.6-2.1-27.46-1.52-41.17,1.19-28.35,5.57-56.52,6-84.9.46-30.52-8.85-59.3-17.44-88.22-8.13-27.41-14.28-54.91-26.15-81.07A263,263,0,0,0,549,44.72c-18.17-20-39.16-37-66.28-42.43-24.86-5-50.43-.95-75.05,3.55A236.68,236.68,0,0,1,365.8,9.91c-13.57.08-27.18-.19-40.67,1.58-47.31,6.21-85,41.78-107.22,82.26-21.38,38.94-30.89,83.37-36.37,127.08-5.58,44.49-7.76,89.79-9,134.61-1.55,58.32,5,121-27.92,172.56-12.1,19-28.34,35.17-50.43,41.49-18.94,5.42-39.13,4.15-58.59,3.71-11.36-.25-22.71-.35-34.06.19a1.52,1.52,0,0,0-.76,2.8c64,41,142.29,61.29,218.14,57.94,26.91-1.18,56.14-3.24,80.8-15,10.83-5.18,20.74-12.84,26.65-23.48,7.12-12.81,8-29,6.11-43.23-4.28-31.45-24.45-57.61-41.88-83-9.43-13.74-18-27.71-24.91-42.92a394.53,394.53,0,0,1-20.91-57.81,491.91,491.91,0,0,1-12.17-58.85c-2.64-17.76-5.63-36-4.42-54,1.94-28.92,14.29-55.6,30.45-79.25,33.31-48.77,81.22-85.9,112.73-136A195.54,195.54,0,0,0,381.24,23c.86-1.72-1.73-3.25-2.59-1.51Z" transform="translate(-0.11)"/></g></g></svg>