<svg xmlns="http://www.w3.org/2000/svg" viewBox="0 0 1055.07 1837.26"><defs><style>.cls-1,.cls-2{fill:#f2c69c;}.cls-1,.cls-10,.cls-11,.cls-2,.cls-3,.cls-4,.cls-5,.cls-6,.cls-7,.cls-8,.cls-9{stroke:#000;stroke-miterlimit:10;}.cls-1,.cls-4{stroke-width:0.92px;}.cls-2{stroke-width:0.93px;}.cls-3{fill:#b2afab;}.cls-3,.cls-8,.cls-9{stroke-width:0.75px;}.cls-4{fill:#ed1c24;}.cls-5,.cls-9{fill:#fff;}.cls-5{stroke-width:0.46px;}.cls-6{fill:#009245;}.cls-10,.cls-11,.cls-6{stroke-width:0.88px;}.cls-7{fill:none;stroke-width:3px;}.cls-8{fill:lime;}.cls-10,.cls-13{fill:#42210b;}.cls-12{fill:#f2cb4e;}</style></defs><title>Asset 6</title><g id="Layer_2" data-name="Layer 2"><g id="Layer_1-2" data-name="Layer 1"><path class="cls-1" d="M870.93,845.27l113,151.51a44.46,44.46,0,0,0-31.26,23.32l-113-151.52Z"/><circle class="cls-2" cx="995.61" cy="1052.93" r="59"/><path class="cls-1" d="M225.56,870.9l-115.2,149.84A44.5,44.5,0,0,0,79.44,997l115.2-149.85Z"/><path class="cls-3" d="M906,797.93a431.1,431.1,0,0,1,40.82,75l-106.8,72a431.28,431.28,0,0,1-54.23-66c-57.14-84.7-76.54-171.52-43.35-193.91S848.89,713.23,906,797.93Z"/><path class="cls-3" d="M299.27,876.92a430.92,430.92,0,0,1-58.22,62.46L138.92,860.86a431.08,431.08,0,0,1,45.4-72.31c62.27-81,138.49-126.88,170.23-102.48S361.54,795.93,299.27,876.92Z"/><path class="cls-4" d="M777.73,1368.89a431.33,431.33,0,0,1-8.09,85H640.82a431.33,431.33,0,0,1-8.09-85c0-102.17,32.46-185,72.5-185S777.73,1266.72,777.73,1368.89Z"/><path class="cls-4" d="M474.73,1372.89a431.33,431.33,0,0,1-8.09,85H337.82a431.33,431.33,0,0,1-8.09-85c0-102.17,32.46-185,72.5-185S474.73,1270.72,474.73,1372.89Z"/><path class="cls-3" d="M848.73,1052.39c0,94.32-13.53,183.07-37.35,260.5H267.08c-23.82-77.43-37.35-166.18-37.35-260.5,0-301.82,138.57-546.5,309.5-546.5S848.73,750.57,848.73,1052.39Z"/><path class="cls-1" d="M418.73,1457.89v189a44.46,44.46,0,0,0-39,0v-189Z"/><path class="cls-1" d="M724.73,1453.89v193a44.46,44.46,0,0,0-39,0v-193Z"/><circle class="cls-1" cx="539.73" cy="395.89" r="250"/><circle class="cls-2" cx="59.48" cy="1047.2" r="59"/><path class="cls-5" d="M664.73,499.39v.5a125,125,0,0,1-250,0q0-5.67.5-11.2v10.7Z"/><circle class="cls-6" cx="414.73" cy="384.89" r="15.56"/><circle class="cls-6" cx="658.73" cy="384.89" r="15.56"/><path class="cls-6" d="M760.84,251.38,760.5,256l-.31-.72h0A14.81,14.81,0,0,1,760.84,251.38Z"/><path class="cls-7" d="M517.24,451.39c.13-19.92,10-36,22.17-36s22.05,16.08,22.18,36"/><path class="cls-8" d="M724.73,1646.9v85h-39v-85a44.46,44.46,0,0,1,39,0Z"/><path class="cls-3" d="M777.74,1765.38a194.56,194.56,0,0,1-8.09,56.51H640.83a194.56,194.56,0,0,1-8.09-56.51c0-56.46,22.43-104,53-118.47v85h39v-85C755.3,1661.33,777.74,1708.91,777.74,1765.38Z"/><path class="cls-8" d="M418.73,1646.9v89h-39v-89a44.46,44.46,0,0,1,39,0Z"/><path class="cls-3" d="M471.74,1765.38a194.56,194.56,0,0,1-8.09,56.51H334.83a194.56,194.56,0,0,1-8.09-56.51c0-56.46,22.43-104,53-118.47v89h39v-89C449.3,1661.33,471.74,1708.91,471.74,1765.38Z"/><rect class="cls-9" x="334.73" y="1821.89" width="129" height="15"/><rect class="cls-9" x="640.73" y="1821.89" width="129" height="15"/><polygon class="cls-10" points="56.65 145.89 55.8 145.89 56.23 145.47 56.65 145.89"/><polygon class="cls-11" points="56.65 145.89 55.8 145.89 56.23 145.47 56.65 145.89"/><polygon class="cls-11" points="56.65 145.89 55.8 145.89 56.23 145.47 56.65 145.89"/><path class="cls-12" d="M758.49,251.49c-102.33,4.86-198.78,39.84-306.28,29.79-56.95-5.33-122.1-34.2-145.34-92.08-26.52-66,13.35-113.66,61.6-153.42,56.85-46.86,138-48.45,187.5,12.27-13.32-.8-28.71,3.19-41.79,1.81,7.84,3.42,15.05,10.43,22.72,14.26-4.53,1.49-20.13,13.09-27.9,14.75,5.68.89,18.91,9.55,27.92,11.27C495.64,141,615.39,134.75,647,146.81,696.44,165.66,736.71,204.06,758.49,251.49Z"/><path d="M758.49,250c-65.7,3.23-129.82,18.81-195,26.79-58.93,7.23-123,10.29-178.5-14.33-23.49-10.42-45.36-25.6-61-46.18-16.66-21.86-26.47-50.22-23.64-77.83,2.74-26.79,17.44-50.33,35.2-69.87s38.8-38.43,62.6-50.45C444.85-5.46,501.79-1.39,541.1,34.48a140.32,140.32,0,0,1,13.8,14.63L556,46.55c-14-.64-27.81,3-41.79,1.81a1.51,1.51,0,0,0-.76,2.79c8.16,3.8,14.77,10.08,22.72,14.26l.36-2.74c-9.85,3.66-17.52,12.18-27.9,14.75a1.51,1.51,0,0,0,0,2.89c9.82,2,18,9.12,27.92,11.27l-.67-2.5c-7.7,9.63-13.64,22.77-2.87,32.53,11,10,28.56,12.65,42.62,15,18,3.09,36.31,4.54,54.35,7.58,22.62,3.83,43.47,15.22,61.92,28.54a204.19,204.19,0,0,1,65.32,79.46c.81,1.75,3.4.23,2.59-1.51a205.72,205.72,0,0,0-85.66-92.86c-9.82-5.52-20.4-11-31.32-14-15.3-4.21-31.56-5.23-47.25-7.29-16.94-2.22-35.1-4.21-50.86-11.24-5.71-2.54-12.23-6.32-14.24-12.66C528,105,533.38,96.94,538,91.2a1.52,1.52,0,0,0-.67-2.51c-9.89-2.16-18.08-9.29-27.92-11.27v2.89c10.43-2.57,18.05-11.08,27.9-14.75a1.52,1.52,0,0,0,.36-2.74c-7.94-4.18-14.56-10.46-22.72-14.26l-.75,2.8c14,1.23,27.8-2.45,41.79-1.81A1.52,1.52,0,0,0,557,47C540.15,26.5,517.81,11,492,4.13,468-2.29,442.25-1,418.58,6.53c-26.16,8.36-47.78,24.21-67.79,42.59-19.52,17.93-37.73,38.68-47.31,63.73-10,26.1-7.78,54.3,3.18,79.73,10.32,23.94,28.47,43.5,50,57.82,50,33.21,111.6,36.9,169.77,33,69.28-4.67,136.88-22.09,205.95-28.53q13-1.22,26.07-1.85C760.41,252.89,760.42,249.89,758.49,250Z"/><path class="cls-13" d="M760.84,251.38,760.5,256l-.31-.72h0c-.55-1.28-1.12-2.53-1.7-3.79C759.28,251.44,760.06,251.41,760.84,251.38Z"/><path d="M759.34,251.38,759,256l2.79-.76-.31-.72.21.76a6.23,6.23,0,0,0-.84-2.2c-.35-.79-.71-1.57-1.07-2.36L758.49,253c.78-.05,1.56-.08,2.35-.11,1.92-.08,1.93-3.08,0-3-.79,0-1.57.06-2.35.11a1.51,1.51,0,0,0-1.3,2.25c.58,1.26,1.15,2.52,1.7,3.79l-.2-.75a4,4,0,0,0,.51,1.48,1.5,1.5,0,0,0,1.69.69A1.55,1.55,0,0,0,762,256l.34-4.63C762.48,249.45,759.48,249.46,759.34,251.38Z"/></g></g></svg>