<svg xmlns="http://www.w3.org/2000/svg" viewBox="0 0 1092.82 1706.82"><defs><style>.cls-1,.cls-2{fill:#c69c6d;}.cls-1,.cls-2,.cls-3,.cls-4,.cls-5,.cls-6,.cls-7,.cls-8,.cls-9{stroke:#000;stroke-miterlimit:10;}.cls-1{stroke-width:0.92px;}.cls-2{stroke-width:0.93px;}.cls-3,.cls-8{fill:blue;}.cls-3,.cls-4,.cls-9{stroke-width:0.88px;}.cls-5,.cls-7{fill:#fff;}.cls-5{stroke-width:0.46px;}.cls-6{fill:none;stroke-width:3px;}.cls-7,.cls-8{stroke-width:0.75px;}.cls-9{fill:#42210b;}</style></defs><title>Asset 5</title><g id="Layer_2" data-name="Layer 2"><g id="Layer_1-2" data-name="Layer 1"><path class="cls-1" d="M908.69,714.82l113,151.51a44.41,44.41,0,0,0-31.26,23.32l-113-151.52Z"/><circle class="cls-2" cx="1033.36" cy="922.48" r="59"/><path class="cls-1" d="M233,736.68,111.44,881.46A44.38,44.38,0,0,0,81.56,856.4L203.08,711.61Z"/><path class="cls-3" d="M943.78,667.48a431.86,431.86,0,0,1,40.83,75l-106.8,72a431.11,431.11,0,0,1-54.24-65.94C766.44,663.86,747,577,780.22,554.65S886.65,582.78,943.78,667.48Z"/><path class="cls-3" d="M274.33,745.86a430.86,430.86,0,0,1-60.84,59.9L114.82,723a431.07,431.07,0,0,1,48.45-70.31C229,574.38,307.06,531.8,337.73,557.54S340,667.6,274.33,745.86Z"/><path class="cls-4" d="M783.32,1238.44a431.33,431.33,0,0,1-8.09,85H646.41a431.33,431.33,0,0,1-8.09-85c0-102.17,32.46-185,72.5-185S783.32,1136.27,783.32,1238.44Z"/><path class="cls-4" d="M480.32,1242.44a431.33,431.33,0,0,1-8.09,85H343.41a431.33,431.33,0,0,1-8.09-85c0-102.17,32.46-185,72.5-185S480.32,1140.27,480.32,1242.44Z"/><path class="cls-3" d="M854.32,921.94c0,94.32-13.53,183.07-37.35,260.5H272.67c-23.82-77.43-37.35-166.18-37.35-260.5,0-301.82,138.57-546.5,309.5-546.5S854.32,620.12,854.32,921.94Z"/><path class="cls-1" d="M424.32,1327.44v189a44.46,44.46,0,0,0-39,0v-189Z"/><path class="cls-1" d="M730.32,1323.44v193a44.46,44.46,0,0,0-39,0v-193Z"/><circle class="cls-1" cx="545.32" cy="265.44" r="250"/><circle class="cls-2" cx="59.48" cy="905.72" r="59"/><path class="cls-5" d="M670.32,368.94v.5a125,125,0,1,1-250,0q0-5.67.5-11.2v10.7Z"/><circle class="cls-4" cx="420.32" cy="254.44" r="15.56"/><circle class="cls-4" cx="664.32" cy="254.44" r="15.56"/><path class="cls-6" d="M522.83,320.94c.14-19.92,10-36,22.18-36s22,16.08,22.18,36"/><path class="cls-7" d="M730.32,1516.45v85h-39v-85a44.46,44.46,0,0,1,39,0Z"/><path class="cls-8" d="M783.33,1634.93a194.56,194.56,0,0,1-8.09,56.51H646.42a194.56,194.56,0,0,1-8.09-56.51c0-56.46,22.43-104,53-118.47v85h39v-85C760.89,1530.88,783.33,1578.46,783.33,1634.93Z"/><path class="cls-7" d="M424.32,1516.45v89h-39v-89a44.46,44.46,0,0,1,39,0Z"/><path class="cls-8" d="M477.33,1634.93a194.56,194.56,0,0,1-8.09,56.51H340.42a194.56,194.56,0,0,1-8.09-56.51c0-56.46,22.43-104,53-118.47v89h39v-89C454.89,1530.88,477.33,1578.46,477.33,1634.93Z"/><rect class="cls-7" x="340.32" y="1691.44" width="129" height="15"/><rect class="cls-7" x="646.32" y="1691.44" width="129" height="15"/><path class="cls-9" d="M811.32,211.44H778.24l-27.92-27.92L722.4,211.44H664.24l-27.92-27.92L608.82,211l-78.5-78.5L451.4,211.44h-6.16l-27.92-27.92L389.4,211.44H364.24l-19.92-19.92L324.4,211.44H278.32c0-116.53,119.32-211,266.5-211S811.32,94.91,811.32,211.44Z"/></g></g></svg>